<?xml version="1.0" encoding="utf-8"?>
<svg viewBox="0 0 1024 1366" height="1366px" width="1024px" xmlns="http://www.w3.org/2000/svg">
  <g id="Fundo" transform="matrix(1, -0.001568, 0, 1, -214.466171, -0.456265)" style=""/>
  <g id="g-1" transform="matrix(1, 0, 0, 1, 202.433075, 180.655563)"/>
  <g id="Arte" transform="matrix(1.19712, 0, 0, 1.281428, -165.466171, -16.043131)" style="">
    <g>
      <defs>
        <rect id="SVGID_1_" width="1024" height="1080"/>
      </defs>
      <clipPath id="SVGID_00000170252071213644069660000000972186797314311554_">
        <rect width="1024" height="1080" style="overflow: visible;"/>
      </clipPath>
      <g style="opacity:0.3;clip-path:url(#SVGID_00000170252071213644069660000000972186797314311554_);">
        <path class="st1" d="M 1120.026 1015.14 C 1111.136 1022.23 1102.256 1029.32 1093.366 1036.41 L 1002.896 1009.78 L 1002.896 1009.76 L 1062.826 928.52 L 1120.026 1015.14 Z" style="fill: rgb(226, 183, 159);"/>
        <path class="st2" d="M 1048.786 1054.84 C 1030.346 1088.14 1011.896 1121.44 993.456 1154.75 L 881.826 1131.89 L 958.306 1028.21 L 1048.786 1054.84 Z" style="fill: rgb(226, 232, 235);"/>
        <polygon class="st2" points="876.468 981.656 873.008 1105.226 807.638 1091.846" style="fill: rgb(226, 232, 235);"/>
        <polygon class="st2" points="1064.526 865.51 1004.596 946.76 986.876 747.87" style="fill: rgb(226, 232, 235);"/>
        <path class="st2" d="M 913.396 755.05 L 862.156 789.45 L 862.156 789.47 L 761.266 857.22 L 748.646 847.2 C 794.076 802.1 839.506 757 884.926 711.9 L 913.396 755.05 Z" style="fill: rgb(226, 232, 235);"/>
        <path class="st3" d="M 797.204 945.481 L 661.574 985.951 C 679.444 950.761 697.304 915.571 715.174 880.391 L 727.794 890.411 L 797.204 945.481 Z" style="fill: rgb(157, 168, 130);"/>
        <polygon class="st2" points="859.946 817.83 855.886 962.43 828.466 940.67 759.056 885.58" style="fill: rgb(226, 232, 235);"/>
        <polygon class="st4" points="1000.504 967.5 1000.504 967.53 888.696 1071.2 893.754 947.63 899.69 803.04 899.69 803.02 974.613 768.61" style="fill: rgb(226, 175, 88);"/>
        <polygon class="st3" points="849.356 981.179 780.536 1091.369 686.306 999.909 686.306 999.889 821.946 959.419" style="fill: rgb(157, 168, 130);"/>
        <path class="st2" d="M 1093.916 650.87 L 1063.046 597.42 L 1063.026 597.42 L 1002.236 492.19 L 1013.076 480.27 C 1055.006 528.64 1096.936 577 1138.876 625.37 L 1093.916 650.87 Z" style="fill: rgb(226, 232, 235);"/>
        <path class="st3" d="M -73.604 930.3 L -165.454 909.82 C -143.674 895.18 -121.894 880.55 -100.124 865.91 L -96.044 875.81 L -73.604 930.3 Z" style="fill: rgb(157, 168, 130);"/>
        <polygon class="st3" points="-55.034 975.79 -130.714 1017.45 -155.764 933.81 -155.754 933.8 -63.904 954.27" style="fill: rgb(157, 168, 130);"/>
        <g transform="matrix(1, 0, 0, 1, -34.194363, 0)">
          <path class="st3" d="M-39.41,930.3l-91.85-20.48c21.78-14.64,43.56-29.27,65.33-43.91l4.08,9.9L-39.41,930.3z" style="fill: rgb(157, 168, 130);"/>
          <polygon class="st3" points="-20.84,975.79 -96.52,1017.45 -121.57,933.81 -121.56,933.8 -29.71,954.27 &#9;&#9;&#9;&#9;" style="fill: rgb(157, 168, 130);"/>
          <path class="st3" d="M1233.67,930.3l-91.85-20.48c21.78-14.64,43.56-29.27,65.33-43.91l4.08,9.9L1233.67,930.3z" style="fill: rgb(157, 168, 130);"/>
          <polygon class="st3" points="1252.24,975.79 1176.57,1017.45 1151.52,933.81 1151.52,933.8 1243.38,954.27 &#9;&#9;&#9;&#9;" style="fill: rgb(157, 168, 130);"/>
        </g>
        <path class="st1" d="M 175.956 265.42 L 93.386 356.73 C 47.466 340.33 1.546 323.94 -44.384 307.54 L 175.956 265.42 Z" style="fill: rgb(226, 183, 159);"/>
        <polygon class="st2" points="291.89 155.197 224.29 229.927 166.7 120.447" style="fill: rgb(226, 232, 235);"/>
        <path class="st2" d="M 407.395 74.463 L 358.695 128.303 L 294.465 11.863 L 284.165 -6.797 C 325.245 20.293 366.315 47.373 407.395 74.463 Z" style="fill: rgb(226, 232, 235);"/>
        <path class="st2" d="M 13.756 -57.19 L -90.254 33.99 L -107.384 29.24 L -112.224 -67.28 C -70.224 -63.91 -28.234 -60.55 13.756 -57.19 Z" style="fill: rgb(226, 232, 235);"/>
        <polygon class="st2" points="-26.504 190.32 -98.654 257.54 -108.654 57.94" style="fill: rgb(226, 232, 235);"/>
        <polygon class="st4" points="139.264 98.173 48.664 182.553 -33.486 50.173 -16.356 54.923" style="fill: rgb(226, 175, 88);"/>
        <polygon class="st5" points="305.167 132.72 148.478 84.492 -46.298 24.467 224.776 -28.882" style="fill: rgb(197, 110, 81);"/>
        <polygon class="st1" points="196.498 228.665 -23.842 270.795 48.308 203.565 138.908 119.185" style="fill: rgb(226, 183, 159);"/>
        <path class="st2" d="M 112.086 391.5 L 246.986 292.43 L 267.146 299.94 L 262.916 416.8 C 212.646 408.36 162.366 399.93 112.086 391.5 Z" style="fill: rgb(226, 232, 235);"/>
        <g transform="matrix(1, 0, 0, 1, -34.194363, 0)">
          <polygon class="st2" points="-43.95,706.39 -117.42,746.34 -83.43,580.3 &#9;&#9;&#9;&#9;" style="fill: rgb(226, 232, 235);"/>
          <polygon class="st2" points="1229.13,706.39 1155.66,746.34 1189.66,580.3 &#9;&#9;&#9;&#9;" style="fill: rgb(226, 232, 235);"/>
        </g>
        <polygon class="st4" points="21.476 619.34 -70.774 669.49 -110.244 543.4 -97.184 550.92" style="fill: rgb(226, 175, 88);"/>
        <path class="st1" d="M 1114.516 453.92 L 1034.136 467.72 C 1016.916 440.39 999.696 413.06 982.466 385.73 L 1114.516 453.92 Z" style="fill: rgb(226, 183, 159);"/>
        <polygon class="st1" points="1125.076 438.57 993.026 370.39 1058.126 364.87 1139.856 357.96" style="fill: rgb(226, 183, 159);"/>
        <polygon class="st6" points="924.712 160.21 857.872 61.24 917.872 -52.51 932.132 80.08 1064.602 110.4 980.692 140.26 925.722 159.84" style="fill: rgb(201, 212, 217);"/>
        <path class="st2" d="M 750.94 145.567 C 730.01 132.027 710.03 116.977 691.14 100.557 L 819.19 -46.443 L 837.76 -18.953 L 750.94 145.567 Z" style="fill: rgb(226, 232, 235);"/>
        <polygon class="st6" points="748.403 211.336 828.153 60.176 894.993 159.156" style="fill: rgb(201, 212, 217);"/>
        <path class="st2" d="M 819.432 307.54 C 783.972 290.23 748.512 272.93 713.052 255.62 L 859.652 203.43 L 860.202 204.23 L 819.432 307.54 Z" style="fill: rgb(226, 232, 235);"/>
        <polygon class="st2" points="872.356 297.53 913.126 194.23 962.956 268.02" style="fill: rgb(226, 232, 235);"/>
        <path class="st2" d="M 1001.976 350.5 C 959.336 341.93 916.706 333.36 874.066 324.79 L 964.666 295.28 L 1001.976 350.5 Z" style="fill: rgb(226, 232, 235);"/>
        <path class="st2" d="M 1128.136 325.29 C 1115.036 325.67 1101.936 326.05 1088.836 326.44 L 1106.656 199.4 L 1119.736 203.55 L 1128.136 325.29 Z" style="fill: rgb(226, 232, 235);"/>
        <path class="st6" d="M 1057.946 321.24 C 1049.486 321.14 1041.076 320.84 1032.676 320.29 L 995.366 265.07 L 945.536 191.28 L 946.006 190.1 L 1000.976 170.53 L 1075.766 194.21 L 1057.946 321.24 Z" style="fill: rgb(201, 212, 217);"/>
        <polygon class="st2" points="1129.786 178.88 1116.706 174.73 1041.916 151.05 1125.816 121.18" style="fill: rgb(226, 232, 235);"/>
        <path class="st6" d="M 1107.896 91.2 L 975.426 60.88 L 961.176 -71.71 C 1007.406 -56.19 1053.626 -40.67 1099.856 -25.15 L 1107.896 91.2 Z" style="fill: rgb(201, 212, 217);"/>
        <g transform="matrix(1, 0, 0, 1, -34.194363, 0)">
          <polygon class="st6" points="1044.84,748.05 1213.66,774.71 1141.59,869.94 &#9;&#9;&#9;&#9;" style="fill: rgb(201, 212, 217);"/>
          <polygon class="st6" points="-228.24,748.05 -59.42,774.71 -131.5,869.94 &#9;&#9;&#9;&#9;" style="fill: rgb(201, 212, 217);"/>
        </g>
        <path class="st2" d="M 353.77 1128.176 C 301.57 1106.889 249.369 1085.602 197.169 1064.326 L 422.112 1014.007 L 422.882 1014.936 L 353.77 1128.176 Z" style="fill: rgb(226, 232, 235);"/>
        <g transform="matrix(1, 0, 0, 1, -34.194363, 0)">
          <polygon class="st2" points="-129.41,1043.49 -22.69,1023.36 -57.76,1103.06 &#9;&#9;&#9;&#9;" style="fill: rgb(226, 232, 235);"/>
          <polygon class="st2" points="1143.67,1043.49 1250.39,1023.36 1215.32,1103.06 &#9;&#9;&#9;&#9;" style="fill: rgb(226, 232, 235);"/>
        </g>
        <path class="st2" d="M 242.546 637.29 C 222.166 640.29 201.796 643.28 181.416 646.28 L 185.966 444.74 L 207.146 448.82 L 242.546 637.29 Z" style="fill: rgb(226, 232, 235);"/>
        <polygon class="st2" points="85.168 1068.739 98.808 1067.199 176.758 1058.339 112.308 1119.809" style="fill: rgb(226, 232, 235);"/>
        <polygon class="st2" points="855.406 648.78 825.186 652.78 780.356 544.34" style="fill: rgb(226, 232, 235);"/>
        <polygon class="st2" points="307.466 858.85 335.216 924.57 233.596 994.36 278.646 874.33 307.446 858.86" style="fill: rgb(226, 232, 235);"/>
        <polygon class="st6" points="212.466 677.83 212.476 677.85 284.586 848.44 284.566 848.45 255.776 863.92 159.056 789.78 212.426 677.85" style="fill: rgb(201, 212, 217);"/>
        <polygon class="st2" points="247.046 888.79 194.236 917.17 106.376 906.73 150.336 814.65" style="fill: rgb(226, 232, 235);"/>
        <polygon class="st6" points="180.726 676.56 127.356 788.49 83.396 880.57 16.556 805.42" style="fill: rgb(201, 212, 217);"/>
        <path class="st2" d="M 130.006 664.8 L -34.164 793.65 L -83.994 832.75 L -16.254 665.79 C 32.496 665.46 81.246 665.13 130.006 664.8 Z" style="fill: rgb(226, 232, 235);"/>
        <polygon class="st2" points="64.016 894.1 -61.284 879.25 -52.664 858.05 -2.824 818.94" style="fill: rgb(226, 232, 235);"/>
        <polygon class="st2" points="160.146 930.96 -2.104 1018.15 -53.004 905.67 72.286 920.52" style="fill: rgb(226, 232, 235);"/>
        <path class="st2" d="M 222.686 921.6 L 177.626 1041.63 C 120.956 1040.14 64.286 1038.65 7.616 1037.16 L 169.866 949.97 L 222.686 921.6 Z" style="fill: rgb(226, 232, 235);"/>
        <g transform="matrix(1, 0, 0, 1, -34.194363, 0)">
          <path class="st1" d="M72.94-110.53c-10.97,8.76-21.95,17.51-32.92,26.27l-111.75-32.9v-0.03L2.29-217.54L72.94-110.53z" style="fill: rgb(226, 183, 159);"/>
        </g>
        <g transform="matrix(1, 0, 0, 1, -34.194363, 0)">
          <path class="st2" d="M671.5,1101.02l50.9,112.47c-28.67-8.64-57.34-17.28-86.02-25.92L671.5,1101.02z" style="fill: rgb(226, 232, 235);"/>
          <path class="st2" d="M671.5-172.06l50.9,112.47c-28.67-8.64-57.34-17.28-86.02-25.92L671.5-172.06z" style="fill: rgb(226, 232, 235);"/>
        </g>
        <path class="st2" d="M 348.343 963.803 L 363.903 1000.573 C 324.843 1011.583 285.783 1022.593 246.723 1033.593 L 348.343 963.803 Z" style="fill: rgb(226, 232, 235);"/>
        <polygon class="st6" points="130.676 418.87 130.686 418.89 151.956 569.74 151.936 569.74 125.786 575.96 64.566 496.58 130.646 418.88" style="fill: rgb(201, 212, 217);"/>
        <polygon class="st2" points="114.666 600.93 64.586 612.82 -6.024 584.78 50.766 518.06" style="fill: rgb(226, 232, 235);"/>
        <polygon class="st6" points="84.996 422.29 9.616 493.96 -52.434 552.91 -82.254 473.98" style="fill: rgb(201, 212, 217);"/>
        <path class="st2" d="M 96.866 388.75 L -70.384 440.45 L -121.144 456.13 L -18.014 345.66 C 20.276 360.02 58.576 374.39 96.866 388.75 Z" style="fill: rgb(226, 232, 235);"/>
        <polygon class="st2" points="889.176 677.77 763.046 765.48 753.766 739.2 767.566 663.32" style="fill: rgb(226, 232, 235);"/>
        <polygon class="st2" points="808.526 539.59 983.586 596.88 937.286 711.33 861.586 610.38" style="fill: rgb(226, 232, 235);"/>
        <path class="st2" d="M 791.486 495.17 L 909.456 444.98 C 947.476 487.03 985.496 529.08 1023.516 571.12 L 848.466 513.83 L 791.486 495.17 Z" style="fill: rgb(226, 232, 235);"/>
        <path class="st2" d="M 958.466 717.47 L 1004.766 603.02 C 1018.296 629.74 1031.816 656.45 1045.346 683.17 L 958.466 717.47 Z" style="fill: rgb(226, 232, 235);"/>
        <g transform="matrix(1, 0, 0, 1, -34.194363, 0)">
          <path class="st1" d="M742.55-129.6c12.39-6.8,24.79-13.61,37.18-20.41l105.24,51.83l0,0.03l-90.69,86.86L742.55-129.6z" style="fill: rgb(226, 183, 159);"/>
          <path class="st1" d="M742.55,1143.48c12.39-6.8,24.79-13.61,37.18-20.41l105.24,51.83l0,0.03l-90.69,86.86L742.55,1143.48z" style="fill: rgb(226, 183, 159);"/>
        </g>
        <g transform="matrix(1, 0, 0, 1, -34.194363, 0)">
          <path class="st2" d="M1199.49,482.76l-68.19,61.22c-11.45-14.79-22.9-29.57-34.35-44.36L1199.49,482.76z" style="fill: rgb(226, 232, 235);"/>
          <path class="st2" d="M-73.59,482.76l-68.19,61.22c-11.45-14.79-22.9-29.57-34.35-44.36L-73.59,482.76z" style="fill: rgb(226, 232, 235);"/>
        </g>
        <polygon class="st2" points="1091.536 1065.86 1138.876 1137.57 1036.216 1161.86" style="fill: rgb(226, 232, 235);"/>
        <polygon class="st4" points="783.022 455.987 807.562 334.637 951.422 394.437 934.722 400.547" style="fill: rgb(226, 175, 88);"/>
        <path class="st2" d="M 512.636 1164.32 C 510.126 1180.71 507.606 1197.1 505.096 1213.5 L 351.036 1162.33 L 359.186 1146.99 L 512.636 1164.32 Z" style="fill: rgb(226, 232, 235);"/>
        <polygon class="st2" points="168.076 -69.25 263.606 -99.06 264.236 -80.92 240.816 -36.47" style="fill: rgb(226, 232, 235);"/>
        <path class="st2" d="M 160.426 589.9 L 160.856 660.49 C 147.886 649.31 134.926 638.13 121.956 626.95 L 160.426 589.9 Z" style="fill: rgb(226, 232, 235);"/>
        <path class="st2" d="M 1139.816 -93.68 L 1130.836 -49.73 C 1087.656 -64.38 1044.476 -79.03 1001.296 -93.68 L 1139.816 -93.68 Z" style="fill: rgb(226, 232, 235);"/>
        <ellipse transform="matrix(0.986937, -0.161106, 0.161106, 0.986937, -207.003263, 73.8555)" class="st5" cx="369.41" cy="1102.76" rx="20.689" ry="20.689" style="fill: rgb(197, 110, 81);"/>
        <ellipse transform="matrix(0.986937, -0.161106, 0.161106, 0.986937, -87.278814, -5.838428)" class="st5" cx="-62.48" cy="324.53" rx="20.689" ry="20.689" style="fill: rgb(197, 110, 81);"/>
        <polygon class="st2" points="336.36 264.03 196.237 278.798 349.422 161.643" style="fill: rgb(226, 232, 235); transform-origin: 284.072px 240.834px;"/>
        <polygon class="st4" points="226.196 660.78 357.487 675.185 303.667 813.424 295.977 798.288" style="fill: rgb(226, 175, 88); transform-origin: 296.859px 735.017px;"/>
        <path class="st2" d="M 305.095 580.849 C 287.556 579.153 270.028 577.451 252.49 575.756 L 300.797 381.231 L 317.433 389.976 L 305.095 580.849 Z" style="fill: rgb(226, 232, 235); transform-origin: 300.069px 484.887px;"/>
        <polygon class="st2" points="653.308 1014.956 779.359 1098.96 744.717 1108.027 657.014 1130.979" style="fill: rgb(226, 232, 235); transform-origin: -87.172px 2169.82px;"/>
      </g>
    </g>
  </g>
</svg>