<?xml version="1.0" encoding="utf-8"?>
<svg viewBox="0 0 1366 768" width="1366px" height="768px" xmlns="http://www.w3.org/2000/svg">
  <g style="" transform="matrix(0.779035, 0, 0, 0.779035, 48.789558, -76.618134)">
    <g id="Camada_4" transform="matrix(1, 0, 0, 1, -152.166183, 92.882278)">
      <g>
        <defs>
          <rect id="SVGID_1_" width="1920" height="1000"/>
        </defs>
        <clipPath id="SVGID_00000166645536293401435070000014976012858562966939_">
          <rect width="1920" height="1000" style="overflow: visible;"/>
        </clipPath>
        <g style="opacity:0.3;clip-path:url(#SVGID_00000166645536293401435070000014976012858562966939_);">
          <g>
            <polygon class="st2" points="-65.37,332.61 -147.78,393.74 -154,501.83 -70.64,539.61 &#9;&#9;&#9;&#9;" style="fill: rgb(197, 110, 81);"/>
            <polygon class="st3" points="-244.22,444.23 -164.12,483.15 -166.03,327.16 &#9;&#9;&#9;&#9;" style="fill: rgb(226, 183, 159);"/>
            <polygon class="st3" points="-249.18,346.91 -247.54,434.36 -167.76,314.92 &#9;&#9;&#9;&#9;" style="fill: rgb(226, 183, 159);"/>
            <polygon class="st3" points="-384.11,363.36 -359.31,367.78 -334.3,419.35 -397.95,429.43 &#9;&#9;&#9;&#9;" style="fill: rgb(226, 183, 159);"/>
            <polygon class="st4" points="-558.69,371.15 -551.26,535.9 -509.09,515.22 -506.28,311.4 &#9;&#9;&#9;&#9;" style="fill: rgb(226, 175, 88);"/>
            <polygon class="st5" points="-432.21,591.48 -432.21,591.47 -400.6,517.36 -400.59,517.36 -387.05,521.7 -381.03,574.37 &#10;&#9;&#9;&#9;&#9;&#9;-432.19,591.48 &#9;&#9;&#9;&#9;" style="fill: rgb(226, 232, 235);"/>
            <polygon class="st5" points="-378.27,455.75 -330.43,507.84 -355.58,579.74 -375.58,503.33 -455.83,497.22 -409.31,472.35 &#10;&#9;&#9;&#9;&#9;&#9;-378.83,456.06 &#9;&#9;&#9;&#9;" style="fill: rgb(226, 232, 235);"/>
            <polygon class="st5" points="-415.96,515.08 -450.93,579.74 -522.09,567.98 -477.76,502.43 &#9;&#9;&#9;&#9;" style="fill: rgb(226, 232, 235);"/>
            <ellipse transform="matrix(0.9869 -0.1611 0.1611 0.9869 -93.6029 -42.9992)" class="st2" cx="-312.03" cy="555.87" rx="20.69" ry="20.69" style="fill: rgb(197, 110, 81);"/>
            <polygon class="st6" points="-493.54,355.9 -495.26,383.05 -406.62,455.19 -408.37,348.01 &#9;&#9;&#9;&#9;" style="fill: rgb(157, 168, 130);"/>
            <polygon class="st6" points="-494.98,392.93 -411.73,462.83 -495.86,479.3 &#9;&#9;&#9;&#9;" style="fill: rgb(157, 168, 130);"/>
            <polygon class="st7" points="-373.18,434.89 -262.76,447.08 -306.67,511.09 &#9;&#9;&#9;&#9;" style="fill: rgb(201, 212, 217);"/>
            <path class="st7" d="M-253.12,459.89c24.32,12.74,47,28.4,67.49,46.56l-105.8,20.58l-0.29-0.61L-253.12,459.89z" style="fill: rgb(201, 212, 217);"/>
            <path class="st7" d="M-136.7,517.36c1.56,17.01,1.9,34.14,1.05,51.26l-133.36-6.79l6.96-21.63L-136.7,517.36z" style="fill: rgb(201, 212, 217);"/>
            <polygon class="st4" points="-259.52,436.11 -267.79,380.26 -325.36,419.23 &#9;&#9;&#9;&#9;" style="fill: rgb(226, 175, 88);"/>
          </g>
          <path class="st3" d="M297.1,935.73c-8.89,7.09-17.77,14.18-26.66,21.27l-90.47-26.63v-0.02l59.93-81.24L297.1,935.73z" style="fill: rgb(226, 183, 159);"/>
          <path class="st5" d="M225.86,975.43c-18.44,33.3-36.89,66.6-55.33,99.91L58.9,1052.48l76.48-103.68L225.86,975.43z" style="fill: rgb(226, 232, 235);"/>
          <polygon class="st5" points="29.37,905.72 25.91,1029.29 -39.46,1015.91 &#9;&#9;&#9;" style="fill: rgb(226, 232, 235);"/>
          <polygon class="st5" points="241.6,786.1 181.67,867.35 163.95,668.46 &#9;&#9;&#9;" style="fill: rgb(226, 232, 235);"/>
          <path class="st5" d="M90.46,675.63l-51.24,34.4v0.02l-100.89,67.75l-12.62-10.02c45.43-45.1,90.86-90.2,136.28-135.3&#10;&#9;&#9;&#9;&#9;L90.46,675.63z" style="fill: rgb(226, 232, 235);"/>
          <path class="st6" d="M-59.19,843.49l-135.63,40.47c17.87-35.19,35.73-70.38,53.6-105.56l12.62,10.02L-59.19,843.49z" style="fill: rgb(157, 168, 130);"/>
          <path class="st5" d="M-93.29,1021.61l-113.45-23.22c6.41-22.75,12.81-45.5,19.22-68.24L-93.29,1021.61z" style="fill: rgb(226, 232, 235);"/>
          <polygon class="st5" points="37.02,738.42 32.96,883.01 5.54,861.25 -63.87,806.17 &#9;&#9;&#9;" style="fill: rgb(226, 232, 235);"/>
          <polygon class="st4" points="142.25,888.09 142.25,888.12 65.77,991.79 69.22,868.22 73.29,723.63 73.29,723.6 124.53,689.2 &#9;&#9;&#9;&#10;&#9;&#9;&#9;&#9;" style="fill: rgb(226, 175, 88);"/>
          <polygon class="st6" points="-1.46,889.61 -70.29,999.8 -164.51,908.34 -164.51,908.32 -28.88,867.85 &#9;&#9;&#9;" style="fill: rgb(157, 168, 130);"/>
          <path class="st5" d="M-226.67,278.2c-19.08,28.21-38.15,56.43-57.23,84.64l-97.66-29.22l76.38-86.33L-226.67,278.2z" style="fill: rgb(226, 232, 235);"/>
          <polygon class="st5" points="-355.34,604.01 -295.38,691.88 -347.69,715.55 &#9;&#9;&#9;" style="fill: rgb(226, 232, 235);"/>
          <polygon class="st5" points="-254.35,80.27 -304.12,20.99 -152.71,43.57 &#9;&#9;&#9;" style="fill: rgb(226, 232, 235);"/>
          <path class="st5" d="M270.99,571.45l-30.87-53.45l-0.02,0l-60.79-105.23l10.84-11.92c41.93,48.37,83.86,96.73,125.8,145.1&#10;&#9;&#9;&#9;&#9;L270.99,571.45z" style="fill: rgb(226, 232, 235);"/>
          <path class="st6" d="M-896.53,850.89l-91.85-20.48c21.78-14.64,43.56-29.27,65.33-43.91l4.08,9.9L-896.53,850.89z" style="fill: rgb(157, 168, 130);"/>
          <path class="st5" d="M-364.41,757.41l-88.39-109.9c23.68-16.36,47.36-32.73,71.04-49.09L-364.41,757.41z" style="fill: rgb(226, 232, 235);"/>
          <polygon class="st5" points="-201.5,-56.83 -336.94,-93.58 -310.18,-114.49 -242.42,-167.41 &#9;&#9;&#9;" style="fill: rgb(226, 232, 235);"/>
          <polygon class="st4" points="-365.61,-18.88 -365.63,-18.89 -429.14,-94.54 -337.66,-69.73 -230.63,-40.69 -230.62,-40.68 &#10;&#9;&#9;&#9;&#9;-214.2,3.7 &#9;&#9;&#9;" style="fill: rgb(226, 175, 88);"/>
          <polygon class="st6" points="-877.97,896.38 -953.64,938.03 -978.69,854.4 -978.68,854.39 -886.83,874.86 &#9;&#9;&#9;" style="fill: rgb(157, 168, 130);"/>
          <g>
            <path class="st6" d="M-896.53,850.89l-91.85-20.48c21.78-14.64,43.56-29.27,65.33-43.91l4.08,9.9L-896.53,850.89z" style="fill: rgb(157, 168, 130);"/>
            <polygon class="st6" points="-877.97,896.38 -953.64,938.03 -978.69,854.4 -978.68,854.39 -886.83,874.86 &#9;&#9;&#9;&#9;" style="fill: rgb(157, 168, 130);"/>
            <path class="st6" d="M376.55,850.89l-91.85-20.48c21.78-14.64,43.56-29.27,65.33-43.91l4.08,9.9L376.55,850.89z" style="fill: rgb(157, 168, 130);"/>
            <polygon class="st6" points="395.12,896.38 319.44,938.03 294.39,854.4 294.4,854.39 386.25,874.86 &#9;&#9;&#9;&#9;" style="fill: rgb(157, 168, 130);"/>
          </g>
          <path class="st3" d="M-646.97,186.01l-82.57,91.31c-45.92-16.4-91.84-32.79-137.77-49.19L-646.97,186.01z" style="fill: rgb(226, 183, 159);"/>
          <polygon class="st5" points="-549.63,91.42 -617.23,166.15 -674.82,56.67 &#9;&#9;&#9;" style="fill: rgb(226, 232, 235);"/>
          <path class="st5" d="M-475.03-3.21l-48.7,53.84l-64.23-116.45l-10.3-18.66C-557.19-57.39-516.11-30.3-475.03-3.21z" style="fill: rgb(226, 232, 235);"/>
          <path class="st5" d="M-809.17-136.6l-104.01,91.18l-17.13-4.75l-4.84-96.52C-893.16-143.32-851.16-139.96-809.17-136.6z" style="fill: rgb(226, 232, 235);"/>
          <path class="st2" d="M-625-104.62l-216.58,38.45l104.01-91.18c34.09,11.36,68.18,22.72,102.27,34.07L-625-104.62z" style="fill: rgb(197, 110, 81);"/>
          <polygon class="st5" points="-849.43,110.91 -921.58,178.13 -931.59,-21.47 &#9;&#9;&#9;" style="fill: rgb(226, 232, 235);"/>
          <polygon class="st4" points="-718.99,20.49 -809.59,104.88 -891.75,-27.5 -874.61,-22.75 &#9;&#9;&#9;" style="fill: rgb(226, 175, 88);"/>
          <polygon class="st2" points="-571.68,35.94 -696.87,1.19 -852.49,-42.06 -635.91,-80.5 &#9;&#9;&#9;" style="fill: rgb(197, 110, 81);"/>
          <polygon class="st3" points="-648.75,157.94 -869.08,200.07 -796.93,132.84 -706.34,48.46 &#9;&#9;&#9;" style="fill: rgb(226, 183, 159);"/>
          <polygon class="st5" points="-408.61,222.09 -451.77,313.15 -538.5,224.94 &#9;&#9;&#9;" style="fill: rgb(226, 232, 235);"/>
          <path class="st5" d="M-311.57,208.83l-48.7,53.84l-64.23-116.45l-10.3-18.66C-393.72,154.65-352.64,181.74-311.57,208.83z" style="fill: rgb(226, 232, 235);"/>
          <path class="st5" d="M-710.84,312.08l134.9-99.07l20.16,7.51l-4.23,116.86C-610.29,328.95-660.56,320.52-710.84,312.08z" style="fill: rgb(226, 232, 235);"/>
          <path class="st2" d="M-220.73,759.93l-117.41-24.17l71.04-25.21c14.97,12.62,29.95,25.24,44.92,37.86L-220.73,759.93z" style="fill: rgb(197, 110, 81);"/>
          <g>
            <polygon class="st5" points="-901.07,626.97 -974.54,666.93 -940.55,500.89 &#9;&#9;&#9;&#9;" style="fill: rgb(226, 232, 235);"/>
            <polygon class="st5" points="372.01,626.97 298.54,666.93 332.53,500.89 &#9;&#9;&#9;&#9;" style="fill: rgb(226, 232, 235);"/>
          </g>
          <polygon class="st4" points="-801.45,539.93 -893.7,590.07 -933.17,463.99 -920.11,471.51 &#9;&#9;&#9;" style="fill: rgb(226, 175, 88);"/>
          <polygon class="st2" points="-203.86,852.73 -260.24,809.9 -330.33,756.65 -212.92,780.82 &#9;&#9;&#9;" style="fill: rgb(197, 110, 81);"/>
          <path class="st3" d="M291.59,374.51l-80.38,13.8c-17.22-27.33-34.44-54.66-51.67-81.99L291.59,374.51z" style="fill: rgb(226, 183, 159);"/>
          <polygon class="st3" points="302.15,359.15 170.1,290.97 235.2,285.46 316.92,278.55 &#9;&#9;&#9;" style="fill: rgb(226, 183, 159);"/>
          <polygon class="st7" points="120.37,80.8 53.53,-18.17 113.54,-131.92 127.79,0.67 260.26,30.98 176.36,60.85 121.39,80.42 &#9;&#9;&#9;&#10;&#9;&#9;&#9;&#9;" style="fill: rgb(201, 212, 217);"/>
          <path class="st5" d="M-88.72,128.69c-20.93-13.54-40.91-28.59-59.8-45.01L-20.48-63.32l18.57,27.49L-88.72,128.69z" style="fill: rgb(226, 232, 235);"/>
          <polygon class="st7" points="-54.08,135.4 25.68,-15.76 92.52,83.21 &#9;&#9;&#9;" style="fill: rgb(201, 212, 217);"/>
          <path class="st5" d="M15.1,228.13c-35.46-17.31-70.92-34.61-106.38-51.92l146.6-52.19l0.55,0.8L15.1,228.13z" style="fill: rgb(226, 232, 235);"/>
          <polygon class="st5" points="49.43,218.12 90.2,114.82 140.03,188.61 &#9;&#9;&#9;" style="fill: rgb(226, 232, 235);"/>
          <path class="st5" d="M179.05,271.09c-42.64-8.57-85.27-17.14-127.91-25.71l90.6-29.51L179.05,271.09z" style="fill: rgb(226, 232, 235);"/>
          <path class="st5" d="M305.21,245.88c-13.1,0.38-26.2,0.76-39.3,1.15l17.82-127.04l13.08,4.15L305.21,245.88z" style="fill: rgb(226, 232, 235);"/>
          <path class="st7" d="M235.02,241.83c-8.46-0.1-16.87-0.4-25.27-0.95l-37.31-55.22l-49.83-73.79l0.47-1.18l54.97-19.57&#10;&#9;&#9;&#9;&#9;l74.79,23.68L235.02,241.83z" style="fill: rgb(201, 212, 217);"/>
          <polygon class="st5" points="306.86,99.47 293.77,95.32 218.98,71.64 302.89,41.77 &#9;&#9;&#9;" style="fill: rgb(226, 232, 235);"/>
          <polygon class="st5" points="20.31,-49.45 1.75,-76.94 85.63,-173.25 &#9;&#9;&#9;" style="fill: rgb(226, 232, 235);"/>
          <path class="st7" d="M284.97,11.79L152.5-18.53l-14.25-132.59c46.23,15.52,92.45,31.04,138.68,46.56L284.97,11.79z" style="fill: rgb(201, 212, 217);"/>
          <polygon class="st7" points="-432.55,1044.04 -466.35,921.79 -367.45,827.59 -397.96,965.88 -274.87,1041.23 -369.44,1042.9 &#10;&#9;&#9;&#9;&#9;-431.4,1044 &#9;&#9;&#9;" style="fill: rgb(201, 212, 217);"/>
          <path class="st5" d="M-410.67,766.89c-24.24,13.63-49.47,25.53-75.48,35.65l-78.59-202.73l36.78-4.05L-410.67,766.89z" style="fill: rgb(226, 232, 235);"/>
          <g>
            <polygon class="st7" points="187.72,668.64 356.54,695.3 284.46,790.52 &#9;&#9;&#9;&#9;" style="fill: rgb(201, 212, 217);"/>
            <polygon class="st7" points="-1085.36,668.64 -916.54,695.3 -988.62,790.52 &#9;&#9;&#9;&#9;" style="fill: rgb(201, 212, 217);"/>
          </g>
          <path class="st5" d="M-542.5,1052.24c-34.57-19.02-69.14-38.04-103.71-57.05l148.97-44.96l0.51,0.83L-542.5,1052.24z" style="fill: rgb(226, 232, 235);"/>
          <g>
            <polygon class="st5" points="-986.53,964.08 -879.82,943.95 -914.89,1023.65 &#9;&#9;&#9;&#9;" style="fill: rgb(226, 232, 235);"/>
            <polygon class="st5" points="286.55,964.08 393.27,943.95 358.2,1023.65 &#9;&#9;&#9;&#9;" style="fill: rgb(226, 232, 235);"/>
          </g>
          <path class="st5" d="M-378.76,811.04c-34.05,27.05-68.1,54.11-102.14,81.16l35.88-88.27L-378.76,811.04z" style="fill: rgb(226, 232, 235);"/>
          <path class="st5" d="M-580.38,557.88c-20.38,3-40.75,5.99-61.13,8.99l4.55-201.54l21.18,4.08L-580.38,557.88z" style="fill: rgb(226, 232, 235);"/>
          <polygon class="st5" points="-789.82,994.54 -776.18,993 -698.24,984.14 -762.68,1045.61 &#9;&#9;&#9;" style="fill: rgb(226, 232, 235);"/>
          <polygon class="st5" points="32.48,569.37 2.26,573.37 -42.57,464.92 &#9;&#9;&#9;" style="fill: rgb(226, 232, 235);"/>
          <path class="st7" d="M-233.53,1017.86l-123.1-75.35l30.52-138.3c41.28,31.27,82.57,62.53,123.85,93.8L-233.53,1017.86z" style="fill: rgb(201, 212, 217);"/>
          <polygon class="st5" points="-515.47,779.44 -487.71,845.16 -589.34,914.95 -544.28,794.92 -515.49,779.45 &#9;&#9;&#9;" style="fill: rgb(226, 232, 235);"/>
          <polygon class="st7" points="-610.46,598.42 -610.45,598.44 -538.34,769.03 -538.36,769.04 -567.16,784.51 -663.87,710.37 &#10;&#9;&#9;&#9;&#9;-610.5,598.44 &#9;&#9;&#9;" style="fill: rgb(201, 212, 217);"/>
          <polygon class="st5" points="-575.88,809.38 -628.69,837.75 -716.55,827.32 -672.59,735.24 &#9;&#9;&#9;" style="fill: rgb(226, 232, 235);"/>
          <polygon class="st7" points="-642.2,597.15 -695.58,709.08 -739.53,801.16 -806.38,726 &#9;&#9;&#9;" style="fill: rgb(201, 212, 217);"/>
          <path class="st5" d="M-692.93,585.39L-857.1,714.24l-49.83,39.1l67.74-166.96C-790.43,586.05-741.68,585.72-692.93,585.39z" style="fill: rgb(226, 232, 235);"/>
          <polygon class="st5" points="-758.91,814.69 -884.21,799.84 -875.59,778.63 -825.76,739.53 &#9;&#9;&#9;" style="fill: rgb(226, 232, 235);"/>
          <polygon class="st5" points="-662.78,851.55 -825.03,938.73 -875.94,826.26 -750.64,841.11 &#9;&#9;&#9;" style="fill: rgb(226, 232, 235);"/>
          <path class="st5" d="M-600.24,842.19l-45.06,120.03c-56.67-1.49-113.34-2.98-170.01-4.47l162.25-87.19L-600.24,842.19z" style="fill: rgb(226, 232, 235);"/>
          <g>
            <path class="st3" d="M-784.19,1083.14c-10.97,8.76-21.95,17.51-32.92,26.27l-111.75-32.9v-0.03l74.03-100.35L-784.19,1083.14z" style="fill: rgb(226, 183, 159);"/>
            <path class="st3" d="M-784.19-189.95c-10.97,8.76-21.95,17.51-32.92,26.27l-111.75-32.9v-0.03l74.03-100.35L-784.19-189.95z" style="fill: rgb(226, 183, 159);"/>
          </g>
          <path class="st7" d="M-594.03,1055.04c-3.33,6.05-6.79,11.98-10.42,17.82l-54.11,5.56l-72.3,7.42l-0.67-0.79l7.1-47.1&#10;&#9;&#9;&#9;&#9;l45.86-44.69L-594.03,1055.04z" style="fill: rgb(201, 212, 217);"/>
          <g>
            <path class="st5" d="M-185.62,1021.61l50.9,112.47c-28.67-8.64-57.34-17.28-86.02-25.92L-185.62,1021.61z" style="fill: rgb(226, 232, 235);"/>
            <path class="st5" d="M-185.62-251.47l50.9,112.47c-28.67-8.64-57.34-17.28-86.02-25.92L-185.62-251.47z" style="fill: rgb(226, 232, 235);"/>
          </g>
          <path class="st5" d="M-511.77,886.12l15.56,36.77c-39.06,11.01-78.12,22.02-117.18,33.02L-511.77,886.12z" style="fill: rgb(226, 232, 235);"/>
          <polygon class="st5" points="-389.66,-16.39 -382.34,87.56 -555.78,136.03 -436.8,-8.59 -389.69,-16.38 &#9;&#9;&#9;" style="fill: rgb(226, 232, 235);"/>
          <polygon class="st7" points="-692.25,339.46 -692.24,339.48 -670.97,490.32 -670.99,490.33 -697.15,496.54 -758.36,417.17 &#10;&#9;&#9;&#9;&#9;-692.28,339.47 &#9;&#9;&#9;" style="fill: rgb(201, 212, 217);"/>
          <polygon class="st5" points="-708.26,521.52 -758.35,533.41 -828.96,505.37 -772.17,438.65 &#9;&#9;&#9;" style="fill: rgb(226, 232, 235);"/>
          <polygon class="st7" points="-737.93,342.87 -813.31,414.54 -875.36,473.49 -905.19,394.57 &#9;&#9;&#9;" style="fill: rgb(201, 212, 217);"/>
          <path class="st5" d="M-726.07,309.34l-167.25,51.7l-50.76,15.68l103.14-110.47C-802.65,280.61-764.36,294.97-726.07,309.34z" style="fill: rgb(226, 232, 235);"/>
          <polygon class="st5" points="66.25,598.36 -59.89,686.07 -69.16,659.79 -55.36,583.91 &#9;&#9;&#9;" style="fill: rgb(226, 232, 235);"/>
          <polygon class="st5" points="-14.4,460.17 160.65,517.47 114.36,631.91 38.66,530.97 &#9;&#9;&#9;" style="fill: rgb(226, 232, 235);"/>
          <path class="st5" d="M-31.45,415.76l117.97-50.19c38.02,42.05,76.04,84.1,114.06,126.14L25.53,434.41L-31.45,415.76z" style="fill: rgb(226, 232, 235);"/>
          <path class="st5" d="M135.54,638.06l46.3-114.45c13.53,26.72,27.05,53.43,40.58,80.15L135.54,638.06z" style="fill: rgb(226, 232, 235);"/>
          <path class="st5" d="M-448.29,144.4l3.6,50.72c-51.6-2.82-103.2-5.64-154.81-8.46L-448.29,144.4z" style="fill: rgb(226, 232, 235);"/>
          <g>
            <path class="st3" d="M-114.57-209.01c12.39-6.8,24.79-13.61,37.18-20.41l105.24,51.83l0,0.03L-62.85-90.7L-114.57-209.01z" style="fill: rgb(226, 183, 159);"/>
            <path class="st3" d="M-114.57,1064.07c12.39-6.8,24.79-13.61,37.18-20.41l105.24,51.83l0,0.03l-90.69,86.86L-114.57,1064.07z" style="fill: rgb(226, 183, 159);"/>
          </g>
          <path class="st5" d="M-417.1-129.94c-22.96,25.75-45.91,51.5-68.87,77.25l-94.1-42.51l88.32-76.36L-417.1-129.94z" style="fill: rgb(226, 232, 235);"/>
          <g>
            <path class="st5" d="M342.37,403.35l-68.19,61.22c-11.45-14.79-22.9-29.57-34.35-44.36L342.37,403.35z" style="fill: rgb(226, 232, 235);"/>
            <path class="st5" d="M-930.71,403.35l-68.19,61.22c-11.45-14.79-22.9-29.57-34.35-44.36L-930.71,403.35z" style="fill: rgb(226, 232, 235);"/>
          </g>
          <polygon class="st5" points="-186.47,75.05 -106.04,195.28 -141,193.42 -229.48,188.72 &#9;&#9;&#9;" style="fill: rgb(226, 232, 235);"/>
          <polygon class="st5" points="268.61,986.45 315.95,1058.16 213.29,1082.44 &#9;&#9;&#9;" style="fill: rgb(226, 232, 235);"/>
          <path class="st5" d="M-93.99,596.46l-8.72,72.07l-119.64-58.06l-19.18-9.3C-192.35,599.61-143.17,598.03-93.99,596.46z" style="fill: rgb(226, 232, 235);"/>
          <polygon class="st4" points="-21.32,374.84 3.22,253.48 147.08,313.29 130.39,319.4 &#9;&#9;&#9;" style="fill: rgb(226, 175, 88);"/>
          <g>
            <path class="st5" d="M-310.29-188.18c-2.51,16.39-5.03,32.78-7.54,49.18l-154.06-51.17l8.15-15.34L-310.29-188.18z" style="fill: rgb(226, 232, 235);"/>
            <path class="st5" d="M-310.29,1084.91c-2.51,16.39-5.03,32.78-7.54,49.18l-154.06-51.17l8.15-15.34L-310.29,1084.91z" style="fill: rgb(226, 232, 235);"/>
          </g>
          <polygon class="st5" points="-39.49,280.31 -114.89,333.38 -230.9,224.14 -66.94,248.16 -39.51,280.29 &#9;&#9;&#9;" style="fill: rgb(226, 232, 235);"/>
          <polygon class="st7" points="-327.33,6.24 -327.31,6.26 -255.21,176.85 -255.23,176.86 -284.02,192.34 -380.74,118.19 &#10;&#9;&#9;&#9;&#9;-327.36,6.27 &#9;&#9;&#9;" style="fill: rgb(201, 212, 217);"/>
          <polygon class="st5" points="-121.63,-8.37 -162.69,-44.97 -181.32,-123.99 -88.12,-115.05 &#9;&#9;&#9;" style="fill: rgb(226, 232, 235);"/>
          <polygon class="st5" points="-654.85,-148.66 -559.32,-178.48 -558.69,-160.33 -582.12,-115.89 &#9;&#9;&#9;" style="fill: rgb(226, 232, 235);"/>
          <path class="st5" d="M-54.22,713.7l-130.93,47.32c-38.69-47.88-77.38-95.76-116.08-143.64l186.35,72.66L-54.22,713.7z" style="fill: rgb(226, 232, 235);"/>
          <path class="st5" d="M-662.5,510.49l0.43,70.59c-12.97-11.18-25.93-22.36-38.9-33.54L-662.5,510.49z" style="fill: rgb(226, 232, 235);"/>
          <path class="st5" d="M316.89-173.09l-8.98,43.95c-43.18-14.65-86.36-29.3-129.54-43.95H316.89z" style="fill: rgb(226, 232, 235);"/>
          <ellipse transform="matrix(0.9869 -0.1611 0.1611 0.9869 -171.1886 -65.191)" class="st2" cx="-487.71" cy="1023.35" rx="20.69" ry="20.69" style="fill: rgb(197, 110, 81);"/>
          <ellipse transform="matrix(0.9869 -0.1611 0.1611 0.9869 -2.7859 -26.9718)" class="st2" cx="-167.76" cy="3.7" rx="20.69" ry="20.69" style="fill: rgb(197, 110, 81);"/>
          <ellipse transform="matrix(0.9869 -0.1611 0.1611 0.9869 -51.4849 -144.9112)" class="st2" cx="-919.6" cy="245.12" rx="20.69" ry="20.69" style="fill: rgb(197, 110, 81);"/>
          <ellipse transform="matrix(0.9869 -0.1611 0.1611 0.9869 -97.2504 49.6435)" class="st2" cx="257.59" cy="624.69" rx="20.69" ry="20.69" style="fill: rgb(197, 110, 81);"/>
        </g>
        <g style="opacity:0.3;clip-path:url(#SVGID_00000166645536293401435070000014976012858562966939_);">
          <g>
            <polygon class="st2" points="2480.79,332.61 2398.39,393.74 2392.16,501.83 2475.52,539.61 &#9;&#9;&#9;&#9;" style="fill: rgb(197, 110, 81);"/>
            <polygon class="st3" points="2301.94,444.23 2382.05,483.15 2380.14,327.16 &#9;&#9;&#9;&#9;" style="fill: rgb(226, 183, 159);"/>
            <polygon class="st3" points="2296.99,346.91 2298.62,434.36 2378.4,314.92 &#9;&#9;&#9;&#9;" style="fill: rgb(226, 183, 159);"/>
            <polygon class="st3" points="2162.06,363.36 2186.86,367.78 2211.87,419.35 2148.21,429.43 &#9;&#9;&#9;&#9;" style="fill: rgb(226, 183, 159);"/>
            <polygon class="st4" points="1987.47,371.15 1994.9,535.9 2037.07,515.22 2039.89,311.4 &#9;&#9;&#9;&#9;" style="fill: rgb(226, 175, 88);"/>
            <polygon class="st5" points="2113.96,591.48 2113.96,591.47 2145.57,517.36 2145.58,517.36 2159.12,521.7 2165.13,574.37 &#10;&#9;&#9;&#9;&#9;&#9;2113.98,591.48 &#9;&#9;&#9;&#9;" style="fill: rgb(226, 232, 235);"/>
            <polygon class="st5" points="2167.89,455.75 2215.74,507.84 2190.59,579.74 2170.59,503.33 2090.34,497.22 2136.86,472.35 &#10;&#9;&#9;&#9;&#9;&#9;2167.33,456.06 &#9;&#9;&#9;&#9;" style="fill: rgb(226, 232, 235);"/>
            <polygon class="st5" points="2130.21,515.08 2095.24,579.74 2024.07,567.98 2068.41,502.43 &#9;&#9;&#9;&#9;" style="fill: rgb(226, 232, 235);"/>
            <ellipse transform="matrix(0.9869 -0.1611 0.1611 0.9869 -60.3616 367.0872)" class="st2" cx="2234.13" cy="555.87" rx="20.69" ry="20.69" style="fill: rgb(197, 110, 81);"/>
            <polygon class="st6" points="2052.62,355.9 2050.9,383.05 2139.55,455.19 2137.8,348.01 &#9;&#9;&#9;&#9;" style="fill: rgb(157, 168, 130);"/>
            <polygon class="st6" points="2051.19,392.93 2134.43,462.83 2050.31,479.3 &#9;&#9;&#9;&#9;" style="fill: rgb(157, 168, 130);"/>
            <polygon class="st7" points="2172.99,434.89 2283.4,447.08 2239.5,511.09 &#9;&#9;&#9;&#9;" style="fill: rgb(201, 212, 217);"/>
            <path class="st7" d="M2293.04,459.89c24.32,12.74,47,28.4,67.49,46.56l-105.8,20.58l-0.29-0.61L2293.04,459.89z" style="fill: rgb(201, 212, 217);"/>
            <path class="st7" d="M2409.47,517.36c1.56,17.01,1.9,34.14,1.05,51.26l-133.36-6.79l6.96-21.63L2409.47,517.36z" style="fill: rgb(201, 212, 217);"/>
            <polygon class="st4" points="2286.65,436.11 2278.37,380.26 2220.81,419.23 &#9;&#9;&#9;&#9;" style="fill: rgb(226, 175, 88);"/>
          </g>
          <path class="st3" d="M2843.27,935.73c-8.89,7.09-17.77,14.18-26.66,21.27l-90.47-26.63v-0.02l59.93-81.24L2843.27,935.73z" style="fill: rgb(226, 183, 159);"/>
          <path class="st5" d="M2772.02,975.43c-18.44,33.3-36.89,66.6-55.33,99.91l-111.63-22.86l76.48-103.68L2772.02,975.43z" style="fill: rgb(226, 232, 235);"/>
          <polygon class="st5" points="2575.53,905.72 2572.08,1029.29 2506.71,1015.91 &#9;&#9;&#9;" style="fill: rgb(226, 232, 235);"/>
          <polygon class="st5" points="2787.77,786.1 2727.83,867.35 2710.12,668.46 &#9;&#9;&#9;" style="fill: rgb(226, 232, 235);"/>
          <path class="st5" d="M2636.63,675.63l-51.24,34.4v0.02l-100.89,67.75l-12.62-10.02c45.43-45.1,90.86-90.2,136.28-135.3&#10;&#9;&#9;&#9;&#9;L2636.63,675.63z" style="fill: rgb(226, 232, 235);"/>
          <path class="st6" d="M2486.97,843.49l-135.63,40.47c17.87-35.19,35.73-70.38,53.6-105.56l12.62,10.02L2486.97,843.49z" style="fill: rgb(157, 168, 130);"/>
          <path class="st5" d="M2452.88,1021.61l-113.45-23.22c6.41-22.75,12.81-45.5,19.22-68.24L2452.88,1021.61z" style="fill: rgb(226, 232, 235);"/>
          <polygon class="st5" points="2583.19,738.42 2579.12,883.01 2551.7,861.25 2482.29,806.17 &#9;&#9;&#9;" style="fill: rgb(226, 232, 235);"/>
          <polygon class="st4" points="2688.42,888.09 2688.42,888.12 2611.93,991.79 2615.39,868.22 2619.46,723.63 2619.46,723.6 &#10;&#9;&#9;&#9;&#9;2670.7,689.2 &#9;&#9;&#9;" style="fill: rgb(226, 175, 88);"/>
          <polygon class="st6" points="2544.71,889.61 2475.88,999.8 2381.66,908.34 2381.66,908.32 2517.29,867.85 &#9;&#9;&#9;" style="fill: rgb(157, 168, 130);"/>
          <path class="st5" d="M2319.49,278.2c-19.08,28.21-38.15,56.43-57.23,84.64l-97.66-29.22l76.38-86.33L2319.49,278.2z" style="fill: rgb(226, 232, 235);"/>
          <polygon class="st5" points="2190.83,604.01 2250.79,691.88 2198.47,715.55 &#9;&#9;&#9;" style="fill: rgb(226, 232, 235);"/>
          <polygon class="st5" points="2291.81,80.27 2242.05,20.99 2393.46,43.57 &#9;&#9;&#9;" style="fill: rgb(226, 232, 235);"/>
          <path class="st5" d="M2817.16,571.45l-30.87-53.45l-0.02,0l-60.79-105.23l10.84-11.92c41.93,48.37,83.86,96.73,125.8,145.1&#10;&#9;&#9;&#9;&#9;L2817.16,571.45z" style="fill: rgb(226, 232, 235);"/>
          <path class="st6" d="M1649.64,850.89l-91.85-20.48c21.78-14.64,43.56-29.27,65.33-43.91l4.08,9.9L1649.64,850.89z" style="fill: rgb(157, 168, 130);"/>
          <path class="st5" d="M2181.76,757.41l-88.39-109.9c23.68-16.36,47.36-32.73,71.04-49.09L2181.76,757.41z" style="fill: rgb(226, 232, 235);"/>
          <polygon class="st5" points="2344.67,-56.83 2209.22,-93.58 2235.99,-114.49 2303.74,-167.41 &#9;&#9;&#9;" style="fill: rgb(226, 232, 235);"/>
          <polygon class="st4" points="2180.55,-18.88 2180.54,-18.89 2117.03,-94.54 2208.5,-69.73 2315.53,-40.69 2315.55,-40.68 &#10;&#9;&#9;&#9;&#9;2331.97,3.7 &#9;&#9;&#9;" style="fill: rgb(226, 175, 88);"/>
          <polygon class="st6" points="1668.2,896.38 1592.53,938.03 1567.48,854.4 1567.48,854.39 1659.34,874.86 &#9;&#9;&#9;" style="fill: rgb(157, 168, 130);"/>
          <g>
            <path class="st6" d="M1649.64,850.89l-91.85-20.48c21.78-14.64,43.56-29.27,65.33-43.91l4.08,9.9L1649.64,850.89z" style="fill: rgb(157, 168, 130);"/>
            <polygon class="st6" points="1668.2,896.38 1592.53,938.03 1567.48,854.4 1567.48,854.39 1659.34,874.86 &#9;&#9;&#9;&#9;" style="fill: rgb(157, 168, 130);"/>
            <path class="st6" d="M2922.72,850.89l-91.85-20.48c21.78-14.64,43.56-29.27,65.33-43.91l4.08,9.9L2922.72,850.89z" style="fill: rgb(157, 168, 130);"/>
            <polygon class="st6" points="2941.28,896.38 2865.61,938.03 2840.56,854.4 2840.57,854.39 2932.42,874.86 &#9;&#9;&#9;&#9;" style="fill: rgb(157, 168, 130);"/>
          </g>
          <path class="st3" d="M1899.19,186.01l-82.57,91.31c-45.92-16.4-91.84-32.79-137.77-49.19L1899.19,186.01z" style="fill: rgb(226, 183, 159);"/>
          <polygon class="st5" points="1996.54,91.42 1928.94,166.15 1871.34,56.67 &#9;&#9;&#9;" style="fill: rgb(226, 232, 235);"/>
          <path class="st5" d="M2071.13-3.21l-48.7,53.84L1958.2-65.82l-10.3-18.66C1988.98-57.39,2030.06-30.3,2071.13-3.21z" style="fill: rgb(226, 232, 235);"/>
          <path class="st5" d="M1737-136.6l-104.01,91.18l-17.13-4.75l-4.84-96.52C1653.01-143.32,1695-139.96,1737-136.6z" style="fill: rgb(226, 232, 235);"/>
          <path class="st2" d="M1921.17-104.62l-216.58,38.45l104.01-91.18c34.09,11.36,68.18,22.72,102.27,34.07L1921.17-104.62z" style="fill: rgb(197, 110, 81);"/>
          <polygon class="st5" points="1696.73,110.91 1624.58,178.13 1614.58,-21.47 &#9;&#9;&#9;" style="fill: rgb(226, 232, 235);"/>
          <polygon class="st4" points="1827.17,20.49 1736.58,104.88 1654.42,-27.5 1671.55,-22.75 &#9;&#9;&#9;" style="fill: rgb(226, 175, 88);"/>
          <polygon class="st2" points="1974.49,35.94 1849.29,1.19 1693.67,-42.06 1910.25,-80.5 &#9;&#9;&#9;" style="fill: rgb(197, 110, 81);"/>
          <polygon class="st3" points="1897.42,157.94 1677.08,200.07 1749.23,132.84 1839.83,48.46 &#9;&#9;&#9;" style="fill: rgb(226, 183, 159);"/>
          <polygon class="st5" points="2137.56,222.09 2094.4,313.15 2007.66,224.94 &#9;&#9;&#9;" style="fill: rgb(226, 232, 235);"/>
          <path class="st5" d="M2234.6,208.83l-48.7,53.84l-64.23-116.45l-10.3-18.66C2152.45,154.65,2193.52,181.74,2234.6,208.83z" style="fill: rgb(226, 232, 235);"/>
          <path class="st5" d="M1835.33,312.08l134.9-99.07l20.16,7.51l-4.23,116.86C1935.88,328.95,1885.6,320.52,1835.33,312.08z" style="fill: rgb(226, 232, 235);"/>
          <path class="st2" d="M2325.43,759.93l-117.41-24.17l71.04-25.21c14.97,12.62,29.95,25.24,44.92,37.86L2325.43,759.93z" style="fill: rgb(197, 110, 81);"/>
          <g>
            <polygon class="st5" points="1645.09,626.97 1571.62,666.93 1605.62,500.89 &#9;&#9;&#9;&#9;" style="fill: rgb(226, 232, 235);"/>
            <polygon class="st5" points="2918.18,626.97 2844.71,666.93 2878.7,500.89 &#9;&#9;&#9;&#9;" style="fill: rgb(226, 232, 235);"/>
          </g>
          <polygon class="st4" points="1744.72,539.93 1652.47,590.07 1612.99,463.99 1626.06,471.51 &#9;&#9;&#9;" style="fill: rgb(226, 175, 88);"/>
          <polygon class="st2" points="2342.31,852.73 2285.92,809.9 2215.84,756.65 2333.25,780.82 &#9;&#9;&#9;" style="fill: rgb(197, 110, 81);"/>
          <path class="st3" d="M2837.76,374.51l-80.38,13.8c-17.22-27.33-34.44-54.66-51.67-81.99L2837.76,374.51z" style="fill: rgb(226, 183, 159);"/>
          <polygon class="st3" points="2848.32,359.15 2716.27,290.97 2781.36,285.46 2863.09,278.55 &#9;&#9;&#9;" style="fill: rgb(226, 183, 159);"/>
          <polygon class="st7" points="2666.54,80.8 2599.7,-18.17 2659.71,-131.92 2673.96,0.67 2806.43,30.98 2722.53,60.85 &#10;&#9;&#9;&#9;&#9;2667.55,80.42 &#9;&#9;&#9;" style="fill: rgb(201, 212, 217);"/>
          <path class="st5" d="M2457.45,128.69c-20.93-13.54-40.91-28.59-59.8-45.01l128.05-147.01l18.57,27.49L2457.45,128.69z" style="fill: rgb(226, 232, 235);"/>
          <polygon class="st7" points="2492.09,135.4 2571.85,-15.76 2638.69,83.21 &#9;&#9;&#9;" style="fill: rgb(201, 212, 217);"/>
          <path class="st5" d="M2561.27,228.13c-35.46-17.31-70.92-34.61-106.38-51.92l146.6-52.19l0.55,0.8L2561.27,228.13z" style="fill: rgb(226, 232, 235);"/>
          <polygon class="st5" points="2595.6,218.12 2636.37,114.82 2686.2,188.61 &#9;&#9;&#9;" style="fill: rgb(226, 232, 235);"/>
          <path class="st5" d="M2725.22,271.09c-42.64-8.57-85.27-17.14-127.91-25.71l90.6-29.51L2725.22,271.09z" style="fill: rgb(226, 232, 235);"/>
          <path class="st5" d="M2851.38,245.88c-13.1,0.38-26.2,0.76-39.3,1.15l17.82-127.04l13.08,4.15L2851.38,245.88z" style="fill: rgb(226, 232, 235);"/>
          <path class="st7" d="M2781.18,241.83c-8.46-0.1-16.87-0.4-25.27-0.95l-37.31-55.22l-49.83-73.79l0.47-1.18l54.97-19.57&#10;&#9;&#9;&#9;&#9;l74.79,23.68L2781.18,241.83z" style="fill: rgb(201, 212, 217);"/>
          <polygon class="st5" points="2853.02,99.47 2839.94,95.32 2765.15,71.64 2849.05,41.77 &#9;&#9;&#9;" style="fill: rgb(226, 232, 235);"/>
          <polygon class="st5" points="2566.48,-49.45 2547.92,-76.94 2631.79,-173.25 &#9;&#9;&#9;" style="fill: rgb(226, 232, 235);"/>
          <path class="st7" d="M2831.13,11.79l-132.47-30.32l-14.25-132.59c46.23,15.52,92.45,31.04,138.68,46.56L2831.13,11.79z" style="fill: rgb(201, 212, 217);"/>
          <polygon class="st7" points="2113.62,1044.04 2079.82,921.79 2178.72,827.59 2148.2,965.88 2271.3,1041.23 2176.73,1042.9 &#10;&#9;&#9;&#9;&#9;2114.77,1044 &#9;&#9;&#9;" style="fill: rgb(201, 212, 217);"/>
          <path class="st5" d="M2135.49,766.89c-24.24,13.63-49.47,25.53-75.48,35.65l-78.59-202.73l36.78-4.05L2135.49,766.89z" style="fill: rgb(226, 232, 235);"/>
          <g>
            <polygon class="st7" points="2733.89,668.64 2902.71,695.3 2830.63,790.52 &#9;&#9;&#9;&#9;" style="fill: rgb(201, 212, 217);"/>
            <polygon class="st7" points="1460.8,668.64 1629.62,695.3 1557.55,790.52 &#9;&#9;&#9;&#9;" style="fill: rgb(201, 212, 217);"/>
          </g>
          <path class="st5" d="M2003.66,1052.24c-34.57-19.02-69.14-38.04-103.71-57.05l148.97-44.96l0.51,0.83L2003.66,1052.24z" style="fill: rgb(226, 232, 235);"/>
          <g>
            <polygon class="st5" points="1559.63,964.08 1666.35,943.95 1631.28,1023.65 &#9;&#9;&#9;&#9;" style="fill: rgb(226, 232, 235);"/>
            <polygon class="st5" points="2832.72,964.08 2939.43,943.95 2904.36,1023.65 &#9;&#9;&#9;&#9;" style="fill: rgb(226, 232, 235);"/>
          </g>
          <path class="st5" d="M2167.41,811.04c-34.05,27.05-68.1,54.11-102.14,81.16l35.88-88.27L2167.41,811.04z" style="fill: rgb(226, 232, 235);"/>
          <path class="st5" d="M1965.78,557.88c-20.38,3-40.75,5.99-61.13,8.99l4.55-201.54l21.18,4.08L1965.78,557.88z" style="fill: rgb(226, 232, 235);"/>
          <polygon class="st5" points="1756.34,994.54 1769.98,993 1847.93,984.14 1783.48,1045.61 &#9;&#9;&#9;" style="fill: rgb(226, 232, 235);"/>
          <polygon class="st5" points="2578.64,569.37 2548.43,573.37 2503.6,464.92 &#9;&#9;&#9;" style="fill: rgb(226, 232, 235);"/>
          <path class="st7" d="M2312.64,1017.86l-123.1-75.35l30.52-138.3c41.28,31.27,82.57,62.53,123.85,93.8L2312.64,1017.86z" style="fill: rgb(201, 212, 217);"/>
          <polygon class="st5" points="2030.7,779.44 2058.45,845.16 1956.83,914.95 2001.89,794.92 2030.68,779.45 &#9;&#9;&#9;" style="fill: rgb(226, 232, 235);"/>
          <polygon class="st7" points="1935.7,598.42 1935.72,598.44 2007.82,769.03 2007.8,769.04 1979.01,784.51 1882.29,710.37 &#10;&#9;&#9;&#9;&#9;1935.67,598.44 &#9;&#9;&#9;" style="fill: rgb(201, 212, 217);"/>
          <polygon class="st5" points="1970.29,809.38 1917.47,837.75 1829.62,827.32 1873.57,735.24 &#9;&#9;&#9;" style="fill: rgb(226, 232, 235);"/>
          <polygon class="st7" points="1903.96,597.15 1850.59,709.08 1806.64,801.16 1739.79,726 &#9;&#9;&#9;" style="fill: rgb(201, 212, 217);"/>
          <path class="st5" d="M1853.24,585.39l-164.17,128.85l-49.83,39.1l67.74-166.96C1755.73,586.05,1804.49,585.72,1853.24,585.39z" style="fill: rgb(226, 232, 235);"/>
          <polygon class="st5" points="1787.26,814.69 1661.96,799.84 1670.58,778.63 1720.41,739.53 &#9;&#9;&#9;" style="fill: rgb(226, 232, 235);"/>
          <polygon class="st5" points="1883.38,851.55 1721.13,938.73 1670.23,826.26 1795.53,841.11 &#9;&#9;&#9;" style="fill: rgb(226, 232, 235);"/>
          <path class="st5" d="M1945.92,842.19l-45.06,120.03c-56.67-1.49-113.34-2.98-170.01-4.47l162.25-87.19L1945.92,842.19z" style="fill: rgb(226, 232, 235);"/>
          <g>
            <path class="st3" d="M1761.98,1083.14c-10.97,8.76-21.95,17.51-32.92,26.27l-111.75-32.9v-0.03l74.03-100.35L1761.98,1083.14z" style="fill: rgb(226, 183, 159);"/>
            <path class="st3" d="M1761.98-189.95c-10.97,8.76-21.95,17.51-32.92,26.27l-111.75-32.9v-0.03l74.03-100.35L1761.98-189.95z" style="fill: rgb(226, 183, 159);"/>
          </g>
          <path class="st7" d="M1952.13,1055.04c-3.33,6.05-6.79,11.98-10.42,17.82l-54.11,5.56l-72.3,7.42l-0.67-0.79l7.1-47.1&#10;&#9;&#9;&#9;&#9;l45.86-44.69L1952.13,1055.04z" style="fill: rgb(201, 212, 217);"/>
          <g>
            <path class="st5" d="M2360.54,1021.61l50.9,112.47c-28.67-8.64-57.34-17.28-86.02-25.92L2360.54,1021.61z" style="fill: rgb(226, 232, 235);"/>
            <path class="st5" d="M2360.54-251.47l50.9,112.47c-28.67-8.64-57.34-17.28-86.02-25.92L2360.54-251.47z" style="fill: rgb(226, 232, 235);"/>
          </g>
          <path class="st5" d="M2034.39,886.12l15.56,36.77c-39.06,11.01-78.12,22.02-117.18,33.02L2034.39,886.12z" style="fill: rgb(226, 232, 235);"/>
          <polygon class="st5" points="2156.5,-16.39 2163.83,87.56 1990.39,136.03 2109.36,-8.59 2156.47,-16.38 &#9;&#9;&#9;" style="fill: rgb(226, 232, 235);"/>
          <polygon class="st7" points="1853.92,339.46 1853.92,339.48 1875.19,490.32 1875.18,490.33 1849.02,496.54 1787.8,417.17 &#10;&#9;&#9;&#9;&#9;1853.88,339.47 &#9;&#9;&#9;" style="fill: rgb(201, 212, 217);"/>
          <polygon class="st5" points="1837.91,521.52 1787.82,533.41 1717.21,505.37 1774,438.65 &#9;&#9;&#9;" style="fill: rgb(226, 232, 235);"/>
          <polygon class="st7" points="1808.23,342.87 1732.85,414.54 1670.8,473.49 1640.98,394.57 &#9;&#9;&#9;" style="fill: rgb(201, 212, 217);"/>
          <path class="st5" d="M1820.1,309.34l-167.25,51.7l-50.76,15.68l103.14-110.47C1743.52,280.61,1781.81,294.97,1820.1,309.34z" style="fill: rgb(226, 232, 235);"/>
          <polygon class="st5" points="2612.41,598.36 2486.28,686.07 2477,659.79 2490.8,583.91 &#9;&#9;&#9;" style="fill: rgb(226, 232, 235);"/>
          <polygon class="st5" points="2531.77,460.17 2706.82,517.47 2660.52,631.91 2584.83,530.97 &#9;&#9;&#9;" style="fill: rgb(226, 232, 235);"/>
          <path class="st5" d="M2514.72,415.76l117.97-50.19c38.02,42.05,76.04,84.1,114.06,126.14l-175.05-57.29L2514.72,415.76z" style="fill: rgb(226, 232, 235);"/>
          <path class="st5" d="M2681.71,638.06l46.3-114.45c13.53,26.72,27.05,53.43,40.58,80.15L2681.71,638.06z" style="fill: rgb(226, 232, 235);"/>
          <path class="st5" d="M2097.87,144.4l3.6,50.72c-51.6-2.82-103.2-5.64-154.81-8.46L2097.87,144.4z" style="fill: rgb(226, 232, 235);"/>
          <g>
            <path class="st3" d="M2431.59-209.01c12.39-6.8,24.79-13.61,37.18-20.41l105.24,51.83l0,0.03l-90.69,86.86L2431.59-209.01z" style="fill: rgb(226, 183, 159);"/>
            <path class="st3" d="M2431.59,1064.07c12.39-6.8,24.79-13.61,37.18-20.41l105.24,51.83l0,0.03l-90.69,86.86L2431.59,1064.07z" style="fill: rgb(226, 183, 159);"/>
          </g>
          <path class="st5" d="M2129.07-129.94c-22.96,25.75-45.91,51.5-68.87,77.25l-94.1-42.51l88.32-76.36L2129.07-129.94z" style="fill: rgb(226, 232, 235);"/>
          <g>
            <path class="st5" d="M2888.54,403.35l-68.19,61.22c-11.45-14.79-22.9-29.57-34.35-44.36L2888.54,403.35z" style="fill: rgb(226, 232, 235);"/>
            <path class="st5" d="M1615.45,403.35l-68.19,61.22c-11.45-14.79-22.9-29.57-34.35-44.36L1615.45,403.35z" style="fill: rgb(226, 232, 235);"/>
          </g>
          <polygon class="st5" points="2359.7,75.05 2440.12,195.28 2405.17,193.42 2316.68,188.72 &#9;&#9;&#9;" style="fill: rgb(226, 232, 235);"/>
          <polygon class="st5" points="2814.78,986.45 2862.11,1058.16 2759.45,1082.44 &#9;&#9;&#9;" style="fill: rgb(226, 232, 235);"/>
          <path class="st5" d="M2452.17,596.46l-8.72,72.07l-119.64-58.06l-19.18-9.3C2353.81,599.61,2402.99,598.03,2452.17,596.46z" style="fill: rgb(226, 232, 235);"/>
          <polygon class="st4" points="2524.85,374.84 2549.39,253.48 2693.25,313.29 2676.56,319.4 &#9;&#9;&#9;" style="fill: rgb(226, 175, 88);"/>
          <g>
            <path class="st5" d="M2235.87-188.18c-2.51,16.39-5.03,32.78-7.54,49.18l-154.06-51.17l8.15-15.34L2235.87-188.18z" style="fill: rgb(226, 232, 235);"/>
            <path class="st5" d="M2235.87,1084.91c-2.51,16.39-5.03,32.78-7.54,49.18l-154.06-51.17l8.15-15.34L2235.87,1084.91z" style="fill: rgb(226, 232, 235);"/>
          </g>
          <polygon class="st5" points="2506.68,280.31 2431.27,333.38 2315.27,224.14 2479.22,248.16 2506.66,280.29 &#9;&#9;&#9;" style="fill: rgb(226, 232, 235);"/>
          <polygon class="st7" points="2218.84,6.24 2218.85,6.26 2290.96,176.85 2290.94,176.86 2262.15,192.34 2165.43,118.19 &#10;&#9;&#9;&#9;&#9;2218.8,6.27 &#9;&#9;&#9;" style="fill: rgb(201, 212, 217);"/>
          <polygon class="st5" points="2424.54,-8.37 2383.48,-44.97 2364.85,-123.99 2458.05,-115.05 &#9;&#9;&#9;" style="fill: rgb(226, 232, 235);"/>
          <polygon class="st5" points="1891.32,-148.66 1986.85,-178.48 1987.47,-160.33 1964.05,-115.89 &#9;&#9;&#9;" style="fill: rgb(226, 232, 235);"/>
          <path class="st5" d="M2491.94,713.7l-130.93,47.32c-38.69-47.88-77.38-95.76-116.08-143.64l186.35,72.66L2491.94,713.7z" style="fill: rgb(226, 232, 235);"/>
          <path class="st5" d="M1883.66,510.49l0.43,70.59c-12.97-11.18-25.93-22.36-38.9-33.54L1883.66,510.49z" style="fill: rgb(226, 232, 235);"/>
          <path class="st5" d="M2863.05-173.09l-8.98,43.95c-43.18-14.65-86.36-29.3-129.54-43.95H2863.05z" style="fill: rgb(226, 232, 235);"/>
          <ellipse transform="matrix(0.9869 -0.1611 0.1611 0.9869 -137.9473 344.8954)" class="st2" cx="2058.45" cy="1023.35" rx="20.69" ry="20.69" style="fill: rgb(197, 110, 81);"/>
          <ellipse transform="matrix(0.9869 -0.1611 0.1611 0.9869 30.4554 383.1143)" class="st2" cx="2378.4" cy="3.7" rx="20.69" ry="20.69" style="fill: rgb(197, 110, 81);"/>
          <ellipse transform="matrix(0.9869 -0.1611 0.1611 0.9869 -18.2436 265.1753)" class="st2" cx="1626.57" cy="245.12" rx="20.69" ry="20.69" style="fill: rgb(197, 110, 81);"/>
          <ellipse transform="matrix(0.9869 -0.1611 0.1611 0.9869 -64.0092 459.7296)" class="st2" cx="2803.76" cy="624.69" rx="20.69" ry="20.69" style="fill: rgb(197, 110, 81);"/>
        </g>
        <g style="opacity:0.3;clip-path:url(#SVGID_00000166645536293401435070000014976012858562966939_);">
          <g>
            <polygon class="st2" points="1207.71,332.61 1125.31,393.74 1119.08,501.83 1202.44,539.61 &#9;&#9;&#9;&#9;" style="fill: rgb(197, 110, 81);"/>
            <polygon class="st3" points="1028.86,444.23 1108.96,483.15 1107.05,327.16 &#9;&#9;&#9;&#9;" style="fill: rgb(226, 183, 159);"/>
            <polygon class="st3" points="1023.9,346.91 1025.54,434.36 1105.32,314.92 &#9;&#9;&#9;&#9;" style="fill: rgb(226, 183, 159);"/>
            <polygon class="st3" points="888.98,363.36 913.77,367.78 938.78,419.35 875.13,429.43 &#9;&#9;&#9;&#9;" style="fill: rgb(226, 183, 159);"/>
            <polygon class="st4" points="714.39,371.15 721.82,535.9 763.99,515.22 766.8,311.4 &#9;&#9;&#9;&#9;" style="fill: rgb(226, 175, 88);"/>
            <polygon class="st5" points="840.88,591.48 840.88,591.47 872.48,517.36 872.49,517.36 886.03,521.7 892.05,574.37 &#10;&#9;&#9;&#9;&#9;&#9;840.9,591.48 &#9;&#9;&#9;&#9;" style="fill: rgb(226, 232, 235);"/>
            <polygon class="st5" points="894.81,455.75 942.65,507.84 917.5,579.74 897.5,503.33 817.26,497.22 863.77,472.35 &#10;&#9;&#9;&#9;&#9;&#9;894.25,456.06 &#9;&#9;&#9;&#9;" style="fill: rgb(226, 232, 235);"/>
            <polygon class="st5" points="857.13,515.08 822.16,579.74 750.99,567.98 795.33,502.43 &#9;&#9;&#9;&#9;" style="fill: rgb(226, 232, 235);"/>
            <ellipse transform="matrix(0.9869 -0.1611 0.1611 0.9869 -76.9822 162.044)" class="st2" cx="961.05" cy="555.87" rx="20.69" ry="20.69" style="fill: rgb(197, 110, 81);"/>
            <polygon class="st6" points="779.54,355.9 777.82,383.05 866.46,455.19 864.71,348.01 &#9;&#9;&#9;&#9;" style="fill: rgb(157, 168, 130);"/>
            <polygon class="st6" points="778.1,392.93 861.35,462.83 777.23,479.3 &#9;&#9;&#9;&#9;" style="fill: rgb(157, 168, 130);"/>
            <polygon class="st7" points="899.9,434.89 1010.32,447.08 966.41,511.09 &#9;&#9;&#9;&#9;" style="fill: rgb(201, 212, 217);"/>
            <path class="st7" d="M1019.96,459.89c24.32,12.74,47,28.4,67.49,46.56l-105.8,20.58l-0.29-0.61L1019.96,459.89z" style="fill: rgb(201, 212, 217);"/>
            <path class="st7" d="M1136.39,517.36c1.56,17.01,1.9,34.14,1.05,51.26l-133.36-6.79l6.96-21.63L1136.39,517.36z" style="fill: rgb(201, 212, 217);"/>
            <polygon class="st4" points="1013.56,436.11 1005.29,380.26 947.73,419.23 &#9;&#9;&#9;&#9;" style="fill: rgb(226, 175, 88);"/>
          </g>
          <path class="st3" d="M1570.18,935.73c-8.89,7.09-17.77,14.18-26.66,21.27l-90.47-26.63v-0.02l59.93-81.24L1570.18,935.73z" style="fill: rgb(226, 183, 159);"/>
          <path class="st5" d="M1498.94,975.43c-18.44,33.3-36.89,66.6-55.33,99.91l-111.63-22.86l76.48-103.68L1498.94,975.43z" style="fill: rgb(226, 232, 235);"/>
          <polygon class="st5" points="1302.45,905.72 1298.99,1029.29 1233.62,1015.91 &#9;&#9;&#9;" style="fill: rgb(226, 232, 235);"/>
          <polygon class="st5" points="1514.69,786.1 1454.75,867.35 1437.03,668.46 &#9;&#9;&#9;" style="fill: rgb(226, 232, 235);"/>
          <path class="st5" d="M1363.55,675.63l-51.24,34.4v0.02l-100.89,67.75l-12.62-10.02c45.43-45.1,90.86-90.2,136.28-135.3&#10;&#9;&#9;&#9;&#9;L1363.55,675.63z" style="fill: rgb(226, 232, 235);"/>
          <path class="st6" d="M1213.89,843.49l-135.63,40.47c17.87-35.19,35.73-70.38,53.6-105.56l12.62,10.02L1213.89,843.49z" style="fill: rgb(157, 168, 130);"/>
          <path class="st5" d="M1179.79,1021.61l-113.45-23.22c6.41-22.75,12.81-45.5,19.22-68.24L1179.79,1021.61z" style="fill: rgb(226, 232, 235);"/>
          <polygon class="st5" points="1310.1,738.42 1306.04,883.01 1278.62,861.25 1209.21,806.17 &#9;&#9;&#9;" style="fill: rgb(226, 232, 235);"/>
          <polygon class="st4" points="1415.33,888.09 1415.33,888.12 1338.85,991.79 1342.31,868.22 1346.37,723.63 1346.37,723.6 &#10;&#9;&#9;&#9;&#9;1397.62,689.2 &#9;&#9;&#9;" style="fill: rgb(226, 175, 88);"/>
          <polygon class="st6" points="1271.62,889.61 1202.8,999.8 1108.57,908.34 1108.57,908.32 1244.21,867.85 &#9;&#9;&#9;" style="fill: rgb(157, 168, 130);"/>
          <polygon class="st5" points="917.75,604.01 977.71,691.88 925.39,715.55 &#9;&#9;&#9;" style="fill: rgb(226, 232, 235);"/>
          <polygon class="st5" points="1018.73,80.27 968.96,20.99 1120.38,43.57 &#9;&#9;&#9;" style="fill: rgb(226, 232, 235);"/>
          <path class="st5" d="M1544.07,571.45l-30.87-53.45l-0.02,0l-60.79-105.23l10.84-11.92c41.93,48.37,83.86,96.73,125.8,145.1&#10;&#9;&#9;&#9;&#9;L1544.07,571.45z" style="fill: rgb(226, 232, 235);"/>
          <path class="st6" d="M376.55,850.89l-91.85-20.48c21.78-14.64,43.56-29.27,65.33-43.91l4.08,9.9L376.55,850.89z" style="fill: rgb(157, 168, 130);"/>
          <path class="st5" d="M908.67,757.41l-88.39-109.9c23.68-16.36,47.36-32.73,71.04-49.09L908.67,757.41z" style="fill: rgb(226, 232, 235);"/>
          <polygon class="st5" points="1071.58,-56.83 936.14,-93.58 962.9,-114.49 1030.66,-167.41 &#9;&#9;&#9;" style="fill: rgb(226, 232, 235);"/>
          <polygon class="st4" points="907.47,-18.88 907.45,-18.89 843.95,-94.54 935.42,-69.73 1042.45,-40.69 1042.47,-40.68 &#10;&#9;&#9;&#9;&#9;1058.88,3.7 &#9;&#9;&#9;" style="fill: rgb(226, 175, 88);"/>
          <polygon class="st6" points="395.12,896.38 319.44,938.03 294.39,854.4 294.4,854.39 386.25,874.86 &#9;&#9;&#9;" style="fill: rgb(157, 168, 130);"/>
          <g>
            <path class="st6" d="M376.55,850.89l-91.85-20.48c21.78-14.64,43.56-29.27,65.33-43.91l4.08,9.9L376.55,850.89z" style="fill: rgb(157, 168, 130);"/>
            <polygon class="st6" points="395.12,896.38 319.44,938.03 294.39,854.4 294.4,854.39 386.25,874.86 &#9;&#9;&#9;&#9;" style="fill: rgb(157, 168, 130);"/>
            <path class="st6" d="M1649.64,850.89l-91.85-20.48c21.78-14.64,43.56-29.27,65.33-43.91l4.08,9.9L1649.64,850.89z" style="fill: rgb(157, 168, 130);"/>
            <polygon class="st6" points="1668.2,896.38 1592.53,938.03 1567.48,854.4 1567.48,854.39 1659.34,874.86 &#9;&#9;&#9;&#9;" style="fill: rgb(157, 168, 130);"/>
          </g>
          <polygon class="st5" points="723.45,91.42 655.85,166.15 598.26,56.67 &#9;&#9;&#9;" style="fill: rgb(226, 232, 235);"/>
          <path class="st5" d="M798.05-3.21l-48.7,53.84L685.12-65.82l-10.3-18.66C715.9-57.39,756.97-30.3,798.05-3.21z" style="fill: rgb(226, 232, 235);"/>
          <path class="st5" d="M463.92-136.6L359.9-45.42l-17.13-4.75l-4.84-96.52C379.93-143.32,421.92-139.96,463.92-136.6z" style="fill: rgb(226, 232, 235);"/>
          <path class="st2" d="M648.08-104.62L431.5-66.18l104.01-91.18c34.09,11.36,68.18,22.72,102.27,34.07L648.08-104.62z" style="fill: rgb(197, 110, 81);"/>
          <polygon class="st5" points="423.65,110.91 351.5,178.13 341.5,-21.47 &#9;&#9;&#9;" style="fill: rgb(226, 232, 235);"/>
          <polygon class="st4" points="554.09,20.49 463.49,104.88 381.34,-27.5 398.47,-22.75 &#9;&#9;&#9;" style="fill: rgb(226, 175, 88);"/>
          <polygon class="st2" points="701.4,35.94 576.21,1.19 420.59,-42.06 637.17,-80.5 &#9;&#9;&#9;" style="fill: rgb(197, 110, 81);"/>
          <polygon class="st3" points="624.34,157.94 404,200.07 476.15,132.84 566.75,48.46 &#9;&#9;&#9;" style="fill: rgb(226, 183, 159);"/>
          <path class="st2" d="M1052.35,759.93l-117.41-24.17l71.04-25.21c14.97,12.62,29.95,25.24,44.92,37.86L1052.35,759.93z" style="fill: rgb(197, 110, 81);"/>
          <g>
            <polygon class="st5" points="372.01,626.97 298.54,666.93 332.53,500.89 &#9;&#9;&#9;&#9;" style="fill: rgb(226, 232, 235);"/>
            <polygon class="st5" points="1645.09,626.97 1571.62,666.93 1605.62,500.89 &#9;&#9;&#9;&#9;" style="fill: rgb(226, 232, 235);"/>
          </g>
          <polygon class="st4" points="471.63,539.93 379.39,590.07 339.91,463.99 352.97,471.51 &#9;&#9;&#9;" style="fill: rgb(226, 175, 88);"/>
          <polygon class="st2" points="1069.23,852.73 1012.84,809.9 942.75,756.65 1060.17,780.82 &#9;&#9;&#9;" style="fill: rgb(197, 110, 81);"/>
          <polygon class="st7" points="1393.46,80.8 1326.62,-18.17 1386.62,-131.92 1400.88,0.67 1533.35,30.98 1449.44,60.85 &#10;&#9;&#9;&#9;&#9;1394.47,80.42 &#9;&#9;&#9;" style="fill: rgb(201, 212, 217);"/>
          <path class="st5" d="M1184.36,128.69c-20.93-13.54-40.91-28.59-59.8-45.01l128.05-147.01l18.57,27.49L1184.36,128.69z" style="fill: rgb(226, 232, 235);"/>
          <polygon class="st7" points="1219.01,135.4 1298.76,-15.76 1365.6,83.21 &#9;&#9;&#9;" style="fill: rgb(201, 212, 217);"/>
          <path class="st5" d="M1288.18,228.13c-35.46-17.31-70.92-34.61-106.38-51.92l146.6-52.19l0.55,0.8L1288.18,228.13z" style="fill: rgb(226, 232, 235);"/>
          <polygon class="st5" points="1322.52,218.12 1363.28,114.82 1413.11,188.61 &#9;&#9;&#9;" style="fill: rgb(226, 232, 235);"/>
          <path class="st5" d="M1578.3,245.88c-13.1,0.38-26.2,0.76-39.3,1.15l17.82-127.04l13.08,4.15L1578.3,245.88z" style="fill: rgb(226, 232, 235);"/>
          <path class="st7" d="M1508.1,241.83c-8.46-0.1-16.87-0.4-25.27-0.95l-37.31-55.22l-49.83-73.79l0.47-1.18l54.97-19.57&#10;&#9;&#9;&#9;&#9;l74.79,23.68L1508.1,241.83z" style="fill: rgb(201, 212, 217);"/>
          <polygon class="st5" points="1579.94,99.47 1566.86,95.32 1492.07,71.64 1575.97,41.77 &#9;&#9;&#9;" style="fill: rgb(226, 232, 235);"/>
          <polygon class="st5" points="1293.4,-49.45 1274.83,-76.94 1358.71,-173.25 &#9;&#9;&#9;" style="fill: rgb(226, 232, 235);"/>
          <path class="st7" d="M1558.05,11.79l-132.47-30.32l-14.25-132.59c46.23,15.52,92.45,31.04,138.68,46.56L1558.05,11.79z" style="fill: rgb(201, 212, 217);"/>
          <polygon class="st7" points="840.53,1044.04 806.74,921.79 905.64,827.59 875.12,965.88 998.21,1041.23 903.65,1042.9 &#10;&#9;&#9;&#9;&#9;841.68,1044 &#9;&#9;&#9;" style="fill: rgb(201, 212, 217);"/>
          <path class="st5" d="M862.41,766.89c-24.24,13.63-49.47,25.53-75.48,35.65l-78.59-202.73l36.78-4.05L862.41,766.89z" style="fill: rgb(226, 232, 235);"/>
          <g>
            <polygon class="st7" points="1460.8,668.64 1629.62,695.3 1557.55,790.52 &#9;&#9;&#9;&#9;" style="fill: rgb(201, 212, 217);"/>
            <polygon class="st7" points="187.72,668.64 356.54,695.3 284.46,790.52 &#9;&#9;&#9;&#9;" style="fill: rgb(201, 212, 217);"/>
          </g>
          <path class="st5" d="M730.58,1052.24c-34.57-19.02-69.14-38.04-103.71-57.05l148.97-44.96l0.51,0.83L730.58,1052.24z" style="fill: rgb(226, 232, 235);"/>
          <g>
            <polygon class="st5" points="286.55,964.08 393.27,943.95 358.2,1023.65 &#9;&#9;&#9;&#9;" style="fill: rgb(226, 232, 235);"/>
            <polygon class="st5" points="1559.63,964.08 1666.35,943.95 1631.28,1023.65 &#9;&#9;&#9;&#9;" style="fill: rgb(226, 232, 235);"/>
          </g>
          <path class="st5" d="M894.32,811.04c-34.05,27.05-68.1,54.11-102.14,81.16l35.88-88.27L894.32,811.04z" style="fill: rgb(226, 232, 235);"/>
          <path class="st5" d="M692.7,557.88c-20.38,3-40.75,5.99-61.13,8.99l4.55-201.54l21.18,4.08L692.7,557.88z" style="fill: rgb(226, 232, 235);"/>
          <polygon class="st5" points="483.26,994.54 496.9,993 574.85,984.14 510.4,1045.61 &#9;&#9;&#9;" style="fill: rgb(226, 232, 235);"/>
          <polygon class="st5" points="1305.56,569.37 1275.34,573.37 1230.51,464.92 &#9;&#9;&#9;" style="fill: rgb(226, 232, 235);"/>
          <path class="st7" d="M1039.55,1017.86l-123.1-75.35l30.52-138.3c41.28,31.27,82.57,62.53,123.85,93.8L1039.55,1017.86z" style="fill: rgb(201, 212, 217);"/>
          <polygon class="st5" points="757.62,779.44 785.37,845.16 683.75,914.95 728.8,794.92 757.6,779.45 &#9;&#9;&#9;" style="fill: rgb(226, 232, 235);"/>
          <polygon class="st7" points="662.62,598.42 662.63,598.44 734.74,769.03 734.72,769.04 705.93,784.51 609.21,710.37 &#10;&#9;&#9;&#9;&#9;662.58,598.44 &#9;&#9;&#9;" style="fill: rgb(201, 212, 217);"/>
          <polygon class="st5" points="697.2,809.38 644.39,837.75 556.53,827.32 600.49,735.24 &#9;&#9;&#9;" style="fill: rgb(226, 232, 235);"/>
          <polygon class="st7" points="630.88,597.15 577.51,709.08 533.55,801.16 466.71,726 &#9;&#9;&#9;" style="fill: rgb(201, 212, 217);"/>
          <path class="st5" d="M580.16,585.39L415.99,714.24l-49.83,39.1l67.74-166.96C482.65,586.05,531.4,585.72,580.16,585.39z" style="fill: rgb(226, 232, 235);"/>
          <polygon class="st5" points="514.17,814.69 388.88,799.84 397.5,778.63 447.33,739.53 &#9;&#9;&#9;" style="fill: rgb(226, 232, 235);"/>
          <polygon class="st5" points="610.3,851.55 448.05,938.73 397.15,826.26 522.44,841.11 &#9;&#9;&#9;" style="fill: rgb(226, 232, 235);"/>
          <path class="st5" d="M672.84,842.19l-45.06,120.03c-56.67-1.49-113.34-2.98-170.01-4.47l162.25-87.19L672.84,842.19z" style="fill: rgb(226, 232, 235);"/>
          <g>
            <path class="st3" d="M488.9,1083.14c-10.97,8.76-21.95,17.51-32.92,26.27l-111.75-32.9v-0.03l74.03-100.35L488.9,1083.14z" style="fill: rgb(226, 183, 159);"/>
            <path class="st3" d="M488.9-189.95c-10.97,8.76-21.95,17.51-32.92,26.27l-111.75-32.9v-0.03l74.03-100.35L488.9-189.95z" style="fill: rgb(226, 183, 159);"/>
          </g>
          <path class="st7" d="M679.05,1055.04c-3.33,6.05-6.79,11.98-10.42,17.82l-54.11,5.56l-72.3,7.42l-0.67-0.79l7.1-47.1l45.86-44.69&#10;&#9;&#9;&#9;&#9;L679.05,1055.04z" style="fill: rgb(201, 212, 217);"/>
          <g>
            <path class="st5" d="M1087.46,1021.61l50.9,112.47c-28.67-8.64-57.34-17.28-86.02-25.92L1087.46,1021.61z" style="fill: rgb(226, 232, 235);"/>
            <path class="st5" d="M1087.46-251.47l50.9,112.47c-28.67-8.64-57.34-17.28-86.02-25.92L1087.46-251.47z" style="fill: rgb(226, 232, 235);"/>
          </g>
          <path class="st5" d="M761.31,886.12l15.56,36.77c-39.06,11.01-78.12,22.02-117.18,33.02L761.31,886.12z" style="fill: rgb(226, 232, 235);"/>
          <polygon class="st5" points="883.42,-16.39 890.74,87.56 717.3,136.03 836.28,-8.59 883.39,-16.38 &#9;&#9;&#9;" style="fill: rgb(226, 232, 235);"/>
          <polygon class="st7" points="580.83,339.46 580.84,339.48 602.11,490.32 602.09,490.33 575.94,496.54 514.72,417.17 &#10;&#9;&#9;&#9;&#9;580.8,339.47 &#9;&#9;&#9;" style="fill: rgb(201, 212, 217);"/>
          <polygon class="st5" points="564.83,521.52 514.74,533.41 444.13,505.37 500.92,438.65 &#9;&#9;&#9;" style="fill: rgb(226, 232, 235);"/>
          <polygon class="st7" points="535.15,342.87 459.77,414.54 397.72,473.49 367.9,394.57 &#9;&#9;&#9;" style="fill: rgb(201, 212, 217);"/>
          <polygon class="st5" points="1339.33,598.36 1213.2,686.07 1203.92,659.79 1217.72,583.91 &#9;&#9;&#9;" style="fill: rgb(226, 232, 235);"/>
          <polygon class="st5" points="1258.68,460.17 1433.74,517.47 1387.44,631.91 1311.74,530.97 &#9;&#9;&#9;" style="fill: rgb(226, 232, 235);"/>
          <path class="st5" d="M1241.64,415.76l117.97-50.19c38.02,42.05,76.04,84.1,114.06,126.14l-175.05-57.29L1241.64,415.76z" style="fill: rgb(226, 232, 235);"/>
          <path class="st5" d="M1408.62,638.06l46.3-114.45c13.53,26.72,27.05,53.43,40.58,80.15L1408.62,638.06z" style="fill: rgb(226, 232, 235);"/>
          <path class="st5" d="M824.79,144.4l3.6,50.72c-51.6-2.82-103.2-5.64-154.81-8.46L824.79,144.4z" style="fill: rgb(226, 232, 235);"/>
          <g>
            <path class="st3" d="M1158.51-209.01c12.39-6.8,24.79-13.61,37.18-20.41l105.24,51.83l0,0.03l-90.69,86.86L1158.51-209.01z" style="fill: rgb(226, 183, 159);"/>
            <path class="st3" d="M1158.51,1064.07c12.39-6.8,24.79-13.61,37.18-20.41l105.24,51.83l0,0.03l-90.69,86.86L1158.51,1064.07z" style="fill: rgb(226, 183, 159);"/>
          </g>
          <path class="st5" d="M855.99-129.94c-22.96,25.75-45.91,51.5-68.87,77.25l-94.1-42.51l88.32-76.36L855.99-129.94z" style="fill: rgb(226, 232, 235);"/>
          <g>
            <path class="st5" d="M1615.45,403.35l-68.19,61.22c-11.45-14.79-22.9-29.57-34.35-44.36L1615.45,403.35z" style="fill: rgb(226, 232, 235);"/>
            <path class="st5" d="M342.37,403.35l-68.19,61.22c-11.45-14.79-22.9-29.57-34.35-44.36L342.37,403.35z" style="fill: rgb(226, 232, 235);"/>
          </g>
          <polygon class="st5" points="1086.61,75.05 1167.04,195.28 1132.09,193.42 1043.6,188.72 &#9;&#9;&#9;" style="fill: rgb(226, 232, 235);"/>
          <polygon class="st5" points="1541.69,986.45 1589.03,1058.16 1486.37,1082.44 &#9;&#9;&#9;" style="fill: rgb(226, 232, 235);"/>
          <path class="st5" d="M1179.09,596.46l-8.72,72.07l-119.64-58.06l-19.18-9.3C1080.73,599.61,1129.91,598.03,1179.09,596.46z" style="fill: rgb(226, 232, 235);"/>
          <g>
            <path class="st5" d="M962.79-188.18c-2.51,16.39-5.03,32.78-7.54,49.18l-154.06-51.17l8.15-15.34L962.79-188.18z" style="fill: rgb(226, 232, 235);"/>
            <path class="st5" d="M962.79,1084.91c-2.51,16.39-5.03,32.78-7.54,49.18l-154.06-51.17l8.15-15.34L962.79,1084.91z" style="fill: rgb(226, 232, 235);"/>
          </g>
          <polygon class="st7" points="945.76,6.24 945.77,6.26 1017.87,176.85 1017.86,176.86 989.06,192.34 892.35,118.19 945.72,6.27 &#10;&#9;&#9;&#9;&#9;&#9;&#9;&#9;" style="fill: rgb(201, 212, 217);"/>
          <polygon class="st5" points="1151.46,-8.37 1110.39,-44.97 1091.77,-123.99 1184.96,-115.05 &#9;&#9;&#9;" style="fill: rgb(226, 232, 235);"/>
          <polygon class="st5" points="618.23,-148.66 713.77,-178.48 714.39,-160.33 690.97,-115.89 &#9;&#9;&#9;" style="fill: rgb(226, 232, 235);"/>
          <path class="st5" d="M1218.86,713.7l-130.93,47.32c-38.69-47.88-77.38-95.76-116.08-143.64l186.35,72.66L1218.86,713.7z" style="fill: rgb(226, 232, 235);"/>
          <path class="st5" d="M610.58,510.49l0.43,70.59c-12.97-11.18-25.93-22.36-38.9-33.54L610.58,510.49z" style="fill: rgb(226, 232, 235);"/>
          <path class="st5" d="M1589.97-173.09l-8.98,43.95c-43.18-14.65-86.36-29.3-129.54-43.95H1589.97z" style="fill: rgb(226, 232, 235);"/>
          <ellipse transform="matrix(0.9869 -0.1611 0.1611 0.9869 -154.5679 139.8522)" class="st2" cx="785.37" cy="1023.35" rx="20.69" ry="20.69" style="fill: rgb(197, 110, 81);"/>
          <ellipse transform="matrix(0.9869 -0.1611 0.1611 0.9869 13.8347 178.0713)" class="st2" cx="1105.32" cy="3.7" rx="20.69" ry="20.69" style="fill: rgb(197, 110, 81);"/>
          <ellipse transform="matrix(0.9869 -0.1611 0.1611 0.9869 -34.8642 60.132)" class="st2" cx="353.48" cy="245.12" rx="20.69" ry="20.69" style="fill: rgb(197, 110, 81);"/>
          <ellipse transform="matrix(0.9869 -0.1611 0.1611 0.9869 -80.6298 254.6866)" class="st2" cx="1530.68" cy="624.69" rx="20.69" ry="20.69" style="fill: rgb(197, 110, 81);"/>
        </g>
      </g>
    </g>
    <g id="Arte" transform="matrix(1, 0, 0, 1, -152.166183, 92.882278)">
      <g>
        <g>
          <path class="st8" d="M714.39,659.18c0-18.78,11.04-28.16,25.78-28.16c11.41,0,20.65,5.86,24.14,17.51&#10;&#9;&#9;&#9;&#9;c3.46-11.65,12.7-17.51,24.14-17.51c14.74,0,25.78,9.37,25.78,28.16v38.8h-4.52v-38.8c0-15.87-9.03-23.98-21.5-23.98&#10;&#9;&#9;&#9;&#9;c-12.36,0-21.63,8.48-21.63,23.98v38.8h-4.51v-38.8c0-15.5-9.3-23.98-21.66-23.98c-12.47,0-21.5,8.11-21.5,23.98v38.8h-4.51&#10;&#9;&#9;&#9;&#9;V659.18z" style="fill: rgb(60, 60, 59);"/>
          <path class="st8" d="M903.36,665.36c0-17.27-12.26-30.16-30.48-30.16c-18.22,0-30.48,12.89-30.48,30.16&#10;&#9;&#9;&#9;&#9;c0,17.27,12.26,30.16,30.48,30.16C891.11,695.52,903.36,682.63,903.36,665.36z M837.75,665.44c0-19.91,14.52-34.42,35.13-34.42&#10;&#9;&#9;&#9;&#9;s35,14.34,35,34.62v32.33h-4.28v-18.01c-5.26,12.68-16.72,19.73-31.09,19.73C852.46,699.69,837.75,685.46,837.75,665.44z" style="fill: rgb(60, 60, 59);"/>
          <path class="st8" d="M934.05,658.04c0-18.12,10.91-27.02,26.73-27.02c15.82,0,26.6,8.9,26.6,27.05v1.11h-4.39v-1.14&#10;&#9;&#9;&#9;&#9;c0-15.5-8.9-22.85-22.21-22.85c-13.34,0-22.21,7.34-22.21,22.85v39.94h-4.51V658.04z" style="fill: rgb(60, 60, 59);"/>
          <path class="st8" d="M1012.45,632.74h4.52v65.24h-4.52V632.74z M1010.39,612.9c0-2.46,1.85-4.3,4.31-4.3&#10;&#9;&#9;&#9;&#9;c2.46,0,4.31,1.85,4.31,4.3c0,2.46-1.85,4.31-4.31,4.31C1012.24,617.21,1010.39,615.36,1010.39,612.9z" style="fill: rgb(60, 60, 59);"/>
          <path class="st8" d="M1111.18,665.36c0-17.27-12.25-30.16-30.48-30.16c-18.25,0-30.48,12.89-30.48,30.16&#10;&#9;&#9;&#9;&#9;c0,17.27,12.23,30.16,30.48,30.16C1098.93,695.52,1111.18,682.63,1111.18,665.36z M1045.71,665.07v-60.86h4.51v45.7&#10;&#9;&#9;&#9;&#9;c4.99-11.81,16.53-18.88,30.85-18.88c20.21,0,34.76,14.42,34.76,34.28s-14.53,34.39-35.16,34.39&#10;&#9;&#9;&#9;&#9;C1060.15,699.69,1045.71,685.54,1045.71,665.07z" style="fill: rgb(60, 60, 59);"/>
          <path class="st8" d="M1207.71,665.36c0-19.81-14.37-34.34-34.97-34.34c-20.6,0-35.13,14.53-35.13,34.34s14.52,34.33,35.13,34.33&#10;&#9;&#9;&#9;&#9;c10.13,0,18.76-3.49,24.89-9.37l-3.07-3.07c-5.33,5.21-12.85,8.26-21.82,8.26c-18.04,0-30.11-12.49-30.45-29.37h65.43V665.36z&#10;&#9;&#9;&#9;&#9; M1142.34,662.03c1.45-15.66,13.42-26.84,30.4-26.84c16.9,0,28.79,11.09,30.27,26.84H1142.34z" style="fill: rgb(60, 60, 59);"/>
        </g>
        <g>
          <path class="st8" d="M738.15,764.97h-3.13l-2.84-7.68h-11.86l-2.84,7.68h-3.09l10.15-26.81h3.5L738.15,764.97z M721.34,754.54&#10;&#9;&#9;&#9;&#9;h9.83l-4.91-13.53L721.34,754.54z" style="fill: rgb(60, 60, 59);"/>
          <path class="st8" d="M775.6,738.17c2.6,0,4.69,0.69,6.28,2.07c1.58,1.38,2.38,3.28,2.38,5.69c0,1.6-0.37,2.93-1.1,4&#10;&#9;&#9;&#9;&#9;c-0.73,1.07-1.75,1.9-3.07,2.5c-1.31,0.6-2.82,1.01-4.53,1.26l-0.28,0.04h-6.54v11.25h-2.92v-26.81H775.6z M775.52,750.96&#10;&#9;&#9;&#9;&#9;c1.87,0,3.28-0.43,4.22-1.28c0.95-0.85,1.42-2.1,1.42-3.76c0-1.68-0.48-2.94-1.42-3.78c-0.95-0.84-2.36-1.26-4.22-1.26h-6.78&#10;&#9;&#9;&#9;&#9;v10.07H775.52z M777.31,751.53l8.41,13.45h-3.45l-7.39-11.82L777.31,751.53z" style="fill: rgb(60, 60, 59);"/>
          <path class="st8" d="M824.31,737.76c2.46,0,4.6,0.56,6.4,1.68c1.8,1.13,3.19,2.72,4.16,4.77c0.98,2.06,1.46,4.51,1.46,7.35&#10;&#9;&#9;&#9;&#9;c0,2.85-0.49,5.3-1.46,7.35c-0.97,2.06-2.36,3.65-4.16,4.77c-1.8,1.12-3.93,1.69-6.4,1.69c-2.46,0-4.6-0.56-6.4-1.69&#10;&#9;&#9;&#9;&#9;c-1.8-1.12-3.19-2.71-4.17-4.77c-0.97-2.06-1.46-4.51-1.46-7.35c0-2.84,0.49-5.29,1.46-7.35c0.98-2.06,2.36-3.65,4.17-4.77&#10;&#9;&#9;&#9;&#9;C819.71,738.32,821.84,737.76,824.31,737.76z M824.31,740.48c-1.84,0-3.43,0.45-4.77,1.34c-1.34,0.89-2.38,2.17-3.11,3.82&#10;&#9;&#9;&#9;&#9;c-0.73,1.65-1.1,3.63-1.1,5.93c0,2.3,0.37,4.28,1.1,5.93c0.73,1.65,1.77,2.92,3.11,3.82c1.34,0.89,2.93,1.34,4.77,1.34&#10;&#9;&#9;&#9;&#9;c1.84,0,3.43-0.45,4.77-1.34c1.34-0.89,2.38-2.17,3.11-3.82c0.73-1.65,1.1-3.63,1.1-5.93c0-2.3-0.37-4.28-1.1-5.93&#10;&#9;&#9;&#9;&#9;c-0.73-1.65-1.77-2.92-3.11-3.82C827.74,740.93,826.15,740.48,824.31,740.48z M830.81,772.89c-1.3,0-2.53-0.26-3.68-0.79&#10;&#9;&#9;&#9;&#9;c-1.15-0.53-2.08-1.41-2.78-2.64c-0.7-1.23-1.06-2.9-1.06-5.02c0-0.22,0.01-0.45,0.02-0.69c0.01-0.24,0.03-0.49,0.06-0.73&#10;&#9;&#9;&#9;&#9;l2.52,0.04c-0.03,0.24-0.06,0.47-0.08,0.67c-0.03,0.2-0.04,0.41-0.04,0.63c0,1.54,0.24,2.71,0.71,3.51&#10;&#9;&#9;&#9;&#9;c0.47,0.8,1.1,1.34,1.89,1.62c0.78,0.28,1.62,0.43,2.52,0.43c0.89,0,1.74-0.13,2.54-0.39c0.8-0.26,1.43-0.63,1.89-1.12l0.93,2.72&#10;&#9;&#9;&#9;&#9;c-0.6,0.54-1.42,0.97-2.48,1.28C832.71,772.74,831.73,772.89,830.81,772.89z" style="fill: rgb(60, 60, 59);"/>
          <path class="st8" d="M885.4,738.17v16.86c0,3.44-0.87,6.03-2.62,7.76c-1.75,1.73-4.24,2.6-7.49,2.6c-3.2,0-5.67-0.87-7.43-2.6&#10;&#9;&#9;&#9;&#9;c-1.76-1.73-2.64-4.32-2.64-7.76v-16.86h2.92v16.17c0,2.55,0.53,4.57,1.58,6.07c1.06,1.5,2.91,2.25,5.56,2.25&#10;&#9;&#9;&#9;&#9;c2.65,0,4.52-0.75,5.58-2.25c1.07-1.5,1.6-3.53,1.6-6.07v-16.17H885.4z" style="fill: rgb(60, 60, 59);"/>
          <path class="st8" d="M918.83,738.17v26.81h-2.92v-26.81H918.83z" style="fill: rgb(60, 60, 59);"/>
          <path class="st8" d="M967.81,738.17v2.72h-9.1v24.09h-2.92v-24.09h-9.1v-2.72H967.81z" style="fill: rgb(60, 60, 59);"/>
          <path class="st8" d="M995.72,764.97v-26.81h18v2.72h-15.07v9.1h11.78v2.76h-11.78v9.5h15.64v2.72H995.72z" style="fill: rgb(60, 60, 59);"/>
          <path class="st8" d="M1060.91,738.17v2.72h-9.1v24.09h-2.92v-24.09h-9.1v-2.72H1060.91z" style="fill: rgb(60, 60, 59);"/>
          <path class="st8" d="M1108.48,738.17v16.86c0,3.44-0.87,6.03-2.62,7.76c-1.75,1.73-4.24,2.6-7.49,2.6c-3.2,0-5.67-0.87-7.43-2.6&#10;&#9;&#9;&#9;&#9;c-1.76-1.73-2.64-4.32-2.64-7.76v-16.86h2.92v16.17c0,2.55,0.53,4.57,1.58,6.07c1.06,1.5,2.91,2.25,5.56,2.25&#10;&#9;&#9;&#9;&#9;c2.65,0,4.52-0.75,5.58-2.25c1.07-1.5,1.6-3.53,1.6-6.07v-16.17H1108.48z" style="fill: rgb(60, 60, 59);"/>
          <path class="st8" d="M1148.77,738.17c2.6,0,4.69,0.69,6.28,2.07c1.58,1.38,2.38,3.28,2.38,5.69c0,1.6-0.37,2.93-1.1,4&#10;&#9;&#9;&#9;&#9;c-0.73,1.07-1.75,1.9-3.07,2.5c-1.31,0.6-2.82,1.01-4.53,1.26l-0.28,0.04h-6.54v11.25h-2.92v-26.81H1148.77z M1148.69,750.96&#10;&#9;&#9;&#9;&#9;c1.87,0,3.28-0.43,4.22-1.28s1.42-2.1,1.42-3.76c0-1.68-0.48-2.94-1.42-3.78s-2.36-1.26-4.22-1.26h-6.78v10.07H1148.69z&#10;&#9;&#9;&#9;&#9; M1150.48,751.53l8.41,13.45h-3.45l-7.39-11.82L1150.48,751.53z" style="fill: rgb(60, 60, 59);"/>
          <path class="st8" d="M1207.71,764.97h-3.13l-2.84-7.68h-11.86l-2.84,7.68h-3.09l10.15-26.81h3.5L1207.71,764.97z M1190.89,754.54&#10;&#9;&#9;&#9;&#9;h9.83l-4.91-13.53L1190.89,754.54z" style="fill: rgb(60, 60, 59);"/>
        </g>
        <g>
          <polygon class="st2" points="1207.71,332.61 1125.31,393.74 1119.08,501.83 1202.44,539.61 &#9;&#9;&#9;" style="fill: rgb(197, 110, 81);"/>
          <polygon class="st3" points="1028.86,444.23 1108.96,483.15 1107.05,327.16 &#9;&#9;&#9;" style="fill: rgb(226, 183, 159);"/>
          <polygon class="st3" points="1023.9,346.91 1025.54,434.36 1105.32,314.92 &#9;&#9;&#9;" style="fill: rgb(226, 183, 159);"/>
          <polygon class="st3" points="888.98,363.36 913.77,367.78 938.78,419.35 875.13,429.43 &#9;&#9;&#9;" style="fill: rgb(226, 183, 159);"/>
          <polygon class="st4" points="714.39,371.15 721.82,535.9 763.99,515.22 766.8,311.4 &#9;&#9;&#9;" style="fill: rgb(226, 175, 88);"/>
          <polygon class="st5" points="840.88,591.48 840.88,591.47 872.48,517.36 872.49,517.36 886.03,521.7 892.05,574.37 840.9,591.48 &#10;&#9;&#9;&#9;&#9;&#9;&#9;&#9;" style="fill: rgb(226, 232, 235);"/>
          <polygon class="st5" points="894.81,455.75 942.65,507.84 917.5,579.74 897.5,503.33 817.26,497.22 863.77,472.35 894.25,456.06 &#10;&#9;&#9;&#9;&#9;&#9;&#9;&#9;" style="fill: rgb(226, 232, 235);"/>
          <polygon class="st5" points="857.13,515.08 822.16,579.74 750.99,567.98 795.33,502.43 &#9;&#9;&#9;" style="fill: rgb(226, 232, 235);"/>
          <ellipse transform="matrix(0.9869 -0.1611 0.1611 0.9869 -76.9822 162.044)" class="st2" cx="961.05" cy="555.87" rx="20.69" ry="20.69" style="fill: rgb(197, 110, 81);"/>
          <polygon class="st6" points="779.54,355.9 777.82,383.05 866.46,455.19 864.71,348.01 &#9;&#9;&#9;" style="fill: rgb(157, 168, 130);"/>
          <polygon class="st6" points="778.1,392.93 861.35,462.83 777.23,479.3 &#9;&#9;&#9;" style="fill: rgb(157, 168, 130);"/>
          <polygon class="st7" points="899.9,434.89 1010.32,447.08 966.41,511.09 &#9;&#9;&#9;" style="fill: rgb(201, 212, 217);"/>
          <path class="st7" d="M1019.96,459.89c24.32,12.74,47,28.4,67.49,46.56l-105.8,20.58l-0.29-0.61L1019.96,459.89z" style="fill: rgb(201, 212, 217);"/>
          <path class="st7" d="M1136.39,517.36c1.56,17.01,1.9,34.14,1.05,51.26l-133.36-6.79l6.96-21.63L1136.39,517.36z" style="fill: rgb(201, 212, 217);"/>
          <polygon class="st4" points="1013.56,436.11 1005.29,380.26 947.73,419.23 &#9;&#9;&#9;" style="fill: rgb(226, 175, 88);"/>
        </g>
      </g>
      <g class="st9" style="opacity: 0.5;">
        <path class="st3" d="M626.11,186.01l-82.57,91.31c-45.92-16.4-91.84-32.79-137.77-49.19L626.11,186.01z" style="fill: rgb(226, 183, 159);"/>
        <path class="st3" d="M1564.67,374.51l-80.38,13.8c-17.22-27.33-34.44-54.66-51.67-81.99L1564.67,374.51z" style="fill: rgb(226, 183, 159);"/>
        <polygon class="st3" points="1575.23,359.15 1443.18,290.97 1508.28,285.46 1590.01,278.55 &#9;&#9;" style="fill: rgb(226, 183, 159);"/>
        <path class="st5" d="M1452.13,271.09c-42.64-8.57-85.27-17.14-127.91-25.71l90.6-29.51L1452.13,271.09z" style="fill: rgb(226, 232, 235);"/>
        <path class="st5" d="M547.02,309.34l-167.25,51.7L329,376.72l103.14-110.47C470.43,280.61,508.73,294.97,547.02,309.34z" style="fill: rgb(226, 232, 235);"/>
      </g>
    </g>
  </g>
</svg>