<?xml version="1.0" encoding="utf-8"?>
<svg viewBox="0 0 500 1080" height="1080px" width="500px" xmlns="http://www.w3.org/2000/svg">
  <g id="Fundo" transform="matrix(1, -0.001568, 0, 1, -214.466171, -0.456265)" style=""/>
  <g id="Arte" transform="matrix(0.738326, -0.001159, 0, 0.994166, -137.960709, -3.697013)" style="">
    <g>
      <defs>
        <rect id="SVGID_1_" width="1024" height="1080"/>
      </defs>
      <clipPath id="SVGID_00000170252071213644069660000000972186797314311554_">
        <rect width="1024" height="1080" style="overflow: visible;"/>
      </clipPath>
      <g style="opacity:0.3;clip-path:url(#SVGID_00000170252071213644069660000000972186797314311554_);">
        <path class="st1" d="M 1154.22 1022.182 C 1145.33 1029.272 1136.45 1036.362 1127.56 1043.452 L 1037.09 1016.822 L 1037.09 1016.802 L 1097.02 935.562 L 1154.22 1022.182 Z" style="fill: rgb(226, 183, 159); transform-box: fill-box; transform-origin: 50% 50%;"/>
        <path class="st2" d="M 1082.98 1061.882 C 1064.54 1095.182 1046.09 1128.482 1027.65 1161.792 L 916.02 1138.932 L 992.5 1035.252 L 1082.98 1061.882 Z" style="fill: rgb(226, 232, 235); transform-box: fill-box; transform-origin: 50% 50%;"/>
        <polygon class="st2" points="845.957 989.258 842.497 1112.828 777.127 1099.448" style="fill: rgb(226, 232, 235); transform-box: fill-box; transform-origin: 50% 50%;"/>
        <polygon class="st2" points="1098.72 872.552 1038.79 953.802 1021.07 754.912" style="fill: rgb(226, 232, 235); transform-box: fill-box; transform-origin: 50% 50%;"/>
        <path class="st2" d="M 914.076 773.663 L 862.836 808.063 L 862.836 808.083 L 761.946 875.833 L 749.326 865.813 C 794.756 820.713 840.186 775.613 885.606 730.513 L 914.076 773.663 Z" style="fill: rgb(226, 232, 235); transform-box: fill-box; transform-origin: 50% 50%;"/>
        <path class="st3" d="M 776.251 915.487 L 640.621 955.957 C 658.491 920.767 676.351 885.577 694.221 850.397 L 706.841 860.417 L 776.251 915.487 Z" style="fill: rgb(157, 168, 130); transform-box: fill-box; transform-origin: 50% 50%;"/>
        <polygon class="st2" points="895.369 826.307 891.309 970.907 863.889 949.147 794.479 894.057" style="fill: rgb(226, 232, 235); transform-box: fill-box; transform-origin: 50% 50%;"/>
        <polygon class="st4" points="999.37 974.542 999.37 974.572 922.89 1078.242 926.35 954.672 930.41 810.082 930.41 810.062 981.66 775.652" style="fill: rgb(226, 175, 88); transform-box: fill-box; transform-origin: 50% 50%;"/>
        <polygon class="st3" points="840.219 958.843 771.399 1069.033 677.169 977.573 677.169 977.553 812.809 937.083" style="fill: rgb(157, 168, 130); transform-box: fill-box; transform-origin: 50% 50%;"/>
        <path class="st2" d="M 1128.11 657.912 L 1097.24 604.462 L 1097.22 604.462 L 1036.43 499.232 L 1047.27 487.312 C 1089.2 535.682 1131.13 584.042 1173.07 632.412 L 1128.11 657.912 Z" style="fill: rgb(226, 232, 235); transform-box: fill-box; transform-origin: 50% 50%;"/>
        <path class="st3" d="M -39.41 937.342 L -131.26 916.862 C -109.48 902.222 -87.7 887.592 -65.93 872.952 L -61.85 882.852 L -39.41 937.342 Z" style="fill: rgb(157, 168, 130); transform-box: fill-box; transform-origin: 50% 50%;"/>
        <polygon class="st3" points="-20.84 982.832 -96.52 1024.492 -121.57 940.852 -121.56 940.842 -29.71 961.312" style="fill: rgb(157, 168, 130); transform-box: fill-box; transform-origin: 50% 50%;"/>
        <g transform="matrix(1, 0, 0, 1, 0, 7.041078)">
          <path class="st3" d="M-39.41,930.3l-91.85-20.48c21.78-14.64,43.56-29.27,65.33-43.91l4.08,9.9L-39.41,930.3z" style="fill: rgb(157, 168, 130);"/>
          <polygon class="st3" points="-20.84,975.79 -96.52,1017.45 -121.57,933.81 -121.56,933.8 -29.71,954.27 &#9;&#9;&#9;&#9;" style="fill: rgb(157, 168, 130);"/>
          <path class="st3" d="M1233.67,930.3l-91.85-20.48c21.78-14.64,43.56-29.27,65.33-43.91l4.08,9.9L1233.67,930.3z" style="fill: rgb(157, 168, 130);"/>
          <polygon class="st3" points="1252.24,975.79 1176.57,1017.45 1151.52,933.81 1151.52,933.8 1243.38,954.27 &#9;&#9;&#9;&#9;" style="fill: rgb(157, 168, 130);"/>
        </g>
        <path class="st1" d="M 258.404 258.184 L 175.834 349.494 C 129.914 333.094 83.994 316.704 38.064 300.304 L 258.404 258.184 Z" style="fill: rgb(226, 183, 159); transform-box: fill-box; transform-origin: 50% 50%;"/>
        <polygon class="st2" points="369.973 162.556 302.373 237.286 244.783 127.806" style="fill: rgb(226, 232, 235); transform-box: fill-box; transform-origin: 50% 50%;"/>
        <path class="st2" d="M 403.131 48.094 L 354.431 101.934 L 290.201 -14.506 L 279.901 -33.166 C 320.981 -6.076 362.051 21.004 403.131 48.094 Z" style="fill: rgb(226, 232, 235); transform-box: fill-box; transform-origin: 50% 50%;"/>
        <path class="st2" d="M 47.95 -50.148 L -56.06 41.032 L -73.19 36.282 L -78.03 -60.238 C -36.03 -56.868 5.96 -53.508 47.95 -50.148 Z" style="fill: rgb(226, 232, 235); transform-box: fill-box; transform-origin: 50% 50%;"/>
        <polygon class="st2" points="7.69 197.362 -64.46 264.582 -74.46 64.982" style="fill: rgb(226, 232, 235); transform-box: fill-box; transform-origin: 50% 50%;"/>
        <polygon class="st4" points="138.13 106.952 47.53 191.332 -34.62 58.952 -17.49 63.702" style="fill: rgb(226, 175, 88); transform-box: fill-box; transform-origin: 50% 50%;"/>
        <polygon class="st5" points="320.182 125.299 194.992 90.549 39.372 47.299 255.952 8.859" style="fill: rgb(197, 110, 81); transform-box: fill-box; transform-origin: 50% 50%;"/>
        <polygon class="st1" points="262.424 241.588 42.084 283.718 114.234 216.489 204.834 132.109" style="fill: rgb(226, 183, 159); transform-box: fill-box; transform-origin: 50% 50%;"/>
        <path class="st2" d="M 186.111 364.897 L 321.011 265.827 L 341.171 273.337 L 336.941 390.197 C 286.671 381.757 236.391 373.327 186.111 364.897 Z" style="fill: rgb(226, 232, 235); transform-box: fill-box; transform-origin: 50% 50%;"/>
        <g transform="matrix(1, 0, 0, 1, 0, 7.041078)">
          <polygon class="st2" points="-43.95,706.39 -117.42,746.34 -83.43,580.3 &#9;&#9;&#9;&#9;" style="fill: rgb(226, 232, 235);"/>
          <polygon class="st2" points="1229.13,706.39 1155.66,746.34 1189.66,580.3 &#9;&#9;&#9;&#9;" style="fill: rgb(226, 232, 235);"/>
        </g>
        <polygon class="st4" points="55.67 626.382 -36.58 676.532 -76.05 550.442 -62.99 557.962" style="fill: rgb(226, 175, 88); transform-box: fill-box; transform-origin: 50% 50%;"/>
        <path class="st1" d="M 1148.71 460.962 L 1068.33 474.762 C 1051.11 447.432 1033.89 420.102 1016.66 392.772 L 1148.71 460.962 Z" style="fill: rgb(226, 183, 159); transform-box: fill-box; transform-origin: 50% 50%;"/>
        <polygon class="st1" points="1159.27 445.612 1027.22 377.432 1092.32 371.912 1174.05 365.002" style="fill: rgb(226, 183, 159); transform-box: fill-box; transform-origin: 50% 50%;"/>
        <polygon class="st6" points="977.5 167.252 910.66 68.282 970.66 -45.468 984.92 87.122 1117.39 117.442 1033.48 147.302 978.51 166.882" style="fill: rgb(201, 212, 217); transform-box: fill-box; transform-origin: 50% 50%;"/>
        <path class="st2" d="M 753.214 167.856 C 732.284 154.316 712.304 139.266 693.414 122.846 L 821.464 -24.154 L 840.034 3.336 L 753.214 167.856 Z" style="fill: rgb(226, 232, 235); transform-box: fill-box; transform-origin: 50% 50%;"/>
        <polygon class="st6" points="755.945 235.897 836.745 80.434 904.465 182.232" style="fill: rgb(201, 212, 217); transform-box: fill-box; transform-origin: 50% 50%;"/>
        <path class="st2" d="M 788.697 345.262 C 753.237 327.952 717.777 310.652 682.317 293.342 L 828.917 241.152 L 829.467 241.952 L 788.697 345.262 Z" style="fill: rgb(226, 232, 235); transform-box: fill-box; transform-origin: 50% 50%;"/>
        <polygon class="st2" points="833.205 314.521 873.975 211.221 923.805 285.011" style="fill: rgb(226, 232, 235); transform-box: fill-box; transform-origin: 50% 50%;"/>
        <path class="st2" d="M 939.663 368.897 C 897.023 360.327 854.393 351.757 811.753 343.187 L 902.353 313.677 L 939.663 368.897 Z" style="fill: rgb(226, 232, 235); transform-box: fill-box; transform-origin: 50% 50%;"/>
        <path class="st2" d="M 1162.33 332.332 C 1149.23 332.712 1136.13 333.092 1123.03 333.482 L 1140.85 206.442 L 1153.93 210.592 L 1162.33 332.332 Z" style="fill: rgb(226, 232, 235); transform-box: fill-box; transform-origin: 50% 50%;"/>
        <path class="st6" d="M 1092.14 328.282 C 1083.68 328.182 1075.27 327.882 1066.87 327.332 L 1029.56 272.112 L 979.73 198.322 L 980.2 197.142 L 1035.17 177.572 L 1109.96 201.252 L 1092.14 328.282 Z" style="fill: rgb(201, 212, 217); transform-box: fill-box; transform-origin: 50% 50%;"/>
        <polygon class="st2" points="1163.98 185.922 1150.9 181.772 1076.11 158.092 1160.01 128.222" style="fill: rgb(226, 232, 235); transform-box: fill-box; transform-origin: 50% 50%;"/>
        <path class="st6" d="M 1142.09 98.242 L 1009.62 67.922 L 995.37 -64.668 C 1041.6 -49.148 1087.82 -33.628 1134.05 -18.108 L 1142.09 98.242 Z" style="fill: rgb(201, 212, 217); transform-box: fill-box; transform-origin: 50% 50%;"/>
        <g transform="matrix(1, 0, 0, 1, 0, 7.041078)">
          <polygon class="st6" points="1044.84,748.05 1213.66,774.71 1141.59,869.94 &#9;&#9;&#9;&#9;" style="fill: rgb(201, 212, 217);"/>
          <polygon class="st6" points="-228.24,748.05 -59.42,774.71 -131.5,869.94 &#9;&#9;&#9;&#9;" style="fill: rgb(201, 212, 217);"/>
        </g>
        <path class="st2" d="M 399.546 1125.89 C 364.976 1106.87 330.406 1087.85 295.836 1068.84 L 444.806 1023.88 L 445.316 1024.71 L 399.546 1125.89 Z" style="fill: rgb(226, 232, 235); transform-box: fill-box; transform-origin: 50% 50%;"/>
        <g transform="matrix(1, 0, 0, 1, 0, 7.041078)">
          <polygon class="st2" points="-129.41,1043.49 -22.69,1023.36 -57.76,1103.06 &#9;&#9;&#9;&#9;" style="fill: rgb(226, 232, 235);"/>
          <polygon class="st2" points="1143.67,1043.49 1250.39,1023.36 1215.32,1103.06 &#9;&#9;&#9;&#9;" style="fill: rgb(226, 232, 235);"/>
        </g>
        <path class="st2" d="M 323.399 630.526 C 303.019 633.526 282.649 636.516 262.269 639.516 L 266.819 437.976 L 287.999 442.056 L 323.399 630.526 Z" style="fill: rgb(226, 232, 235); transform-box: fill-box; transform-origin: 50% 50%;"/>
        <polygon class="st2" points="67.3 1080.992 80.94 1079.452 158.89 1070.592 94.44 1132.062" style="fill: rgb(226, 232, 235); transform-box: fill-box; transform-origin: 50% 50%;"/>
        <polygon class="st2" points="878.019 651.508 847.799 655.508 802.969 547.068" style="fill: rgb(226, 232, 235); transform-box: fill-box; transform-origin: 50% 50%;"/>
        <polygon class="st2" points="387.665 835.168 415.415 900.888 313.795 970.678 358.845 850.648 387.645 835.178" style="fill: rgb(226, 232, 235); transform-box: fill-box; transform-origin: 50% 50%;"/>
        <polygon class="st6" points="288.677 652.758 288.687 652.778 360.797 823.368 360.777 823.378 331.987 838.848 235.267 764.708 288.637 652.778" style="fill: rgb(201, 212, 217); transform-box: fill-box; transform-origin: 50% 50%;"/>
        <polygon class="st2" points="290.572 873.666 237.762 902.046 149.902 891.606 193.862 799.526" style="fill: rgb(226, 232, 235); transform-box: fill-box; transform-origin: 50% 50%;"/>
        <polygon class="st6" points="243.872 654.967 190.502 766.897 146.542 858.977 79.702 783.827" style="fill: rgb(201, 212, 217); transform-box: fill-box; transform-origin: 50% 50%;"/>
        <path class="st2" d="M 164.2 671.842 L 0.03 800.692 L -49.8 839.792 L 17.94 672.832 C 66.69 672.502 115.44 672.172 164.2 671.842 Z" style="fill: rgb(226, 232, 235); transform-box: fill-box; transform-origin: 50% 50%;"/>
        <polygon class="st2" points="98.21 901.142 -27.09 886.292 -18.47 865.092 31.37 825.982" style="fill: rgb(226, 232, 235); transform-box: fill-box; transform-origin: 50% 50%;"/>
        <polygon class="st2" points="231.013 932.311 68.763 1019.501 17.863 907.021 143.153 921.871" style="fill: rgb(226, 232, 235); transform-box: fill-box; transform-origin: 50% 50%;"/>
        <path class="st2" d="M 293.553 922.951 L 248.493 1042.981 C 191.823 1041.491 135.153 1040.001 78.483 1038.511 L 240.733 951.321 L 293.553 922.951 Z" style="fill: rgb(226, 232, 235); transform-box: fill-box; transform-origin: 50% 50%;"/>
        <g transform="matrix(1, 0, 0, 1, 0, 7.041078)">
          <path class="st1" d="M72.94-110.53c-10.97,8.76-21.95,17.51-32.92,26.27l-111.75-32.9v-0.03L2.29-217.54L72.94-110.53z" style="fill: rgb(226, 183, 159);"/>
        </g>
        <g transform="matrix(1, 0, 0, 1, 0, 7.041078)">
          <path class="st2" d="M671.5,1101.02l50.9,112.47c-28.67-8.64-57.34-17.28-86.02-25.92L671.5,1101.02z" style="fill: rgb(226, 232, 235);"/>
          <path class="st2" d="M671.5-172.06l50.9,112.47c-28.67-8.64-57.34-17.28-86.02-25.92L671.5-172.06z" style="fill: rgb(226, 232, 235);"/>
        </g>
        <path class="st2" d="M 389.743 959.733 L 405.303 996.503 C 366.243 1007.513 327.183 1018.523 288.123 1029.523 L 389.743 959.733 Z" style="fill: rgb(226, 232, 235); transform-box: fill-box; transform-origin: 50% 50%;"/>
        <polygon class="st6" points="225.231 401.851 225.241 401.871 246.511 552.721 246.491 552.721 220.341 558.941 159.121 479.561 225.201 401.861" style="fill: rgb(201, 212, 217); transform-box: fill-box; transform-origin: 50% 50%;"/>
        <polygon class="st2" points="148.86 607.972 98.78 619.862 28.17 591.822 84.96 525.102" style="fill: rgb(226, 232, 235); transform-box: fill-box; transform-origin: 50% 50%;"/>
        <polygon class="st6" points="119.19 429.332 43.81 501.002 -18.24 559.952 -48.06 481.022" style="fill: rgb(201, 212, 217); transform-box: fill-box; transform-origin: 50% 50%;"/>
        <path class="st2" d="M 131.06 395.792 L -36.19 447.492 L -86.95 463.172 L 16.18 352.702 C 54.47 367.062 92.77 381.432 131.06 395.792 Z" style="fill: rgb(226, 232, 235); transform-box: fill-box; transform-origin: 50% 50%;"/>
        <polygon class="st2" points="890.047 715.55 763.917 803.26 754.637 776.98 768.437 701.1" style="fill: rgb(226, 232, 235); transform-box: fill-box; transform-origin: 50% 50%;"/>
        <polygon class="st2" points="827.279 540.88 1002.339 598.17 956.039 712.62 880.339 611.67" style="fill: rgb(226, 232, 235); transform-box: fill-box; transform-origin: 50% 50%;"/>
        <path class="st2" d="M 744.024 496.383 L 861.994 446.193 C 900.014 488.243 938.034 530.293 976.054 572.333 L 801.004 515.043 L 744.024 496.383 Z" style="fill: rgb(226, 232, 235); transform-box: fill-box; transform-origin: 50% 50%;"/>
        <path class="st2" d="M 992.66 724.512 L 1038.96 610.062 C 1052.49 636.782 1066.01 663.492 1079.54 690.212 L 992.66 724.512 Z" style="fill: rgb(226, 232, 235); transform-box: fill-box; transform-origin: 50% 50%;"/>
        <g transform="matrix(1, 0, 0, 1, 0, 7.041078)">
          <path class="st1" d="M742.55-129.6c12.39-6.8,24.79-13.61,37.18-20.41l105.24,51.83l0,0.03l-90.69,86.86L742.55-129.6z" style="fill: rgb(226, 183, 159);"/>
          <path class="st1" d="M742.55,1143.48c12.39-6.8,24.79-13.61,37.18-20.41l105.24,51.83l0,0.03l-90.69,86.86L742.55,1143.48z" style="fill: rgb(226, 183, 159);"/>
        </g>
        <g transform="matrix(1, 0, 0, 1, 0, 7.041078)">
          <path class="st2" d="M1199.49,482.76l-68.19,61.22c-11.45-14.79-22.9-29.57-34.35-44.36L1199.49,482.76z" style="fill: rgb(226, 232, 235);"/>
          <path class="st2" d="M-73.59,482.76l-68.19,61.22c-11.45-14.79-22.9-29.57-34.35-44.36L-73.59,482.76z" style="fill: rgb(226, 232, 235);"/>
        </g>
        <polygon class="st2" points="1125.73 1072.902 1173.07 1144.612 1070.41 1168.902" style="fill: rgb(226, 232, 235); transform-box: fill-box; transform-origin: 50% 50%;"/>
        <polygon class="st4" points="735.49 476.611 760.03 355.261 903.89 415.061 887.19 421.171" style="fill: rgb(226, 175, 88); transform-box: fill-box; transform-origin: 50% 50%;"/>
        <path class="st2" d="M 546.83 1171.362 C 544.32 1187.752 541.8 1204.142 539.29 1220.542 L 385.23 1169.372 L 393.38 1154.032 L 546.83 1171.362 Z" style="fill: rgb(226, 232, 235); transform-box: fill-box; transform-origin: 50% 50%;"/>
        <polygon class="st2" points="202.27 -62.208 297.8 -92.018 298.43 -73.878 275.01 -29.428" style="fill: rgb(226, 232, 235); transform-box: fill-box; transform-origin: 50% 50%;"/>
        <path class="st2" d="M 220.749 583.112 L 221.179 653.702 C 208.209 642.522 195.249 631.342 182.279 620.162 L 220.749 583.112 Z" style="fill: rgb(226, 232, 235); transform-box: fill-box; transform-origin: 50% 50%;"/>
        <path class="st2" d="M 1174.01 -86.638 L 1165.03 -42.688 C 1121.85 -57.338 1078.67 -71.988 1035.49 -86.638 L 1174.01 -86.638 Z" style="fill: rgb(226, 232, 235); transform-box: fill-box; transform-origin: 50% 50%;"/>
        <ellipse transform="matrix(0.986937, -0.161106, 0.161106, 0.986937, -172.810859, 80.892662)" class="st5" cx="369.41" cy="1102.76" rx="20.689" ry="20.689" style="fill: rgb(197, 110, 81);"/>
        <ellipse transform="matrix(0.986937, -0.161106, 0.161106, 0.986937, -53.084448, 1.201394)" class="st5" cx="-62.48" cy="324.53" rx="20.689" ry="20.689" style="fill: rgb(197, 110, 81);"/>
        <ellipse transform="matrix(0.986937, -0.161106, 0.161106, 0.986937, -98.900595, 195.748397)" class="st5" cx="1114.71" cy="704.11" rx="20.689" ry="20.689" style="fill: rgb(197, 110, 81);"/>
        <path class="st3" d="M 737.549 1074.231 L 601.919 1114.701 C 619.789 1079.511 637.649 1044.321 655.519 1009.141 L 668.139 1019.161 L 737.549 1074.231 Z" style="fill: rgb(157, 168, 130); transform-box: fill-box; transform-origin: 50% 50%;"/>
        <polygon class="st2" points="1089.078 633.264 1058.858 637.264 1014.028 528.824" style="fill: rgb(226, 232, 235); transform-box: fill-box; transform-origin: 50% 50%;"/>
        <polygon class="st2" points="810.992 586.222 730.062 718.925 724.107 679.165 732.961 564.36" style="fill: rgb(226, 232, 235); transform-box: fill-box; transform-origin: 50% 50%;"/>
        <polygon class="st4" points="1079.334 453.036 1103.874 331.686 1247.734 391.486 1231.034 397.596" style="fill: rgb(226, 175, 88); transform-box: fill-box; transform-origin: 50% 50%;"/>
        <path class="st3" d="M 776.864 13.88 L 666.326 59.856 C 680.891 19.878 695.446 -20.1 710.01 -60.067 L 720.295 -48.684 L 776.864 13.88 Z" style="fill: rgb(157, 168, 130); transform-origin: 721.595px -0.109px;"/>
      </g>
    </g>
  </g>
</svg>