<?xml version="1.0" encoding="utf-8"?>
<svg viewBox="0 0 500 1080" width="500px" height="1080px" xmlns="http://www.w3.org/2000/svg">
  <g id="Fundo" transform="matrix(0.524117, 0, 0, 0.722233, -28.600943, -22.329094)" style=""/>
  <g id="Arte" transform="matrix(0.57259, 0, 0, 0.99505, -67.837624, 0.858882)" style="">
    <g>
      <defs>
        <rect id="SVGID_1_" width="1024" height="1080"/>
      </defs>
      <clipPath id="SVGID_00000170252071213644069660000000972186797314311554_">
        <rect width="1024" height="1080" style="overflow: visible;"/>
      </clipPath>
      <g style="opacity:0.3;clip-path:url(#SVGID_00000170252071213644069660000000972186797314311554_);">
        <path class="st1" d="M1154.22,1015.14c-8.89,7.09-17.77,14.18-26.66,21.27l-90.47-26.63v-0.02l59.93-81.24L1154.22,1015.14z" style="fill: rgb(226, 183, 159);"/>
        <path class="st2" d="M1082.98,1054.84c-18.44,33.3-36.89,66.6-55.33,99.91l-111.63-22.86l76.48-103.68L1082.98,1054.84z" style="fill: rgb(226, 232, 235);"/>
        <polygon class="st2" points="886.49,985.13 883.03,1108.7 817.66,1095.32 &#9;&#9;&#9;" style="fill: rgb(226, 232, 235);"/>
        <polygon class="st2" points="1098.72,865.51 1038.79,946.76 1021.07,747.87 &#9;&#9;&#9;" style="fill: rgb(226, 232, 235);"/>
        <path class="st2" d="M947.59,755.05l-51.24,34.4v0.02l-100.89,67.75l-12.62-10.02c45.43-45.1,90.86-90.2,136.28-135.3&#10;&#9;&#9;&#9;&#9;L947.59,755.05z" style="fill: rgb(226, 232, 235);"/>
        <path class="st3" d="M797.93,922.9L662.3,963.37c17.87-35.19,35.73-70.38,53.6-105.56l12.62,10.02L797.93,922.9z" style="fill: rgb(157, 168, 130);"/>
        <polygon class="st2" points="894.14,817.83 890.08,962.43 862.66,940.67 793.25,885.58 &#9;&#9;&#9;" style="fill: rgb(226, 232, 235);"/>
        <polygon class="st4" points="999.37,967.5 999.37,967.53 922.89,1071.2 926.35,947.63 930.41,803.04 930.41,803.02 &#10;&#9;&#9;&#9;&#9;981.66,768.61 &#9;&#9;&#9;" style="fill: rgb(226, 175, 88);"/>
        <polygon class="st3" points="855.66,969.02 786.84,1079.21 692.61,987.75 692.61,987.73 828.25,947.26 &#9;&#9;&#9;" style="fill: rgb(157, 168, 130);"/>
        <path class="st2" d="M1128.11,650.87l-30.87-53.45l-0.02,0l-60.79-105.23l10.84-11.92c41.93,48.37,83.86,96.73,125.8,145.1&#10;&#9;&#9;&#9;&#9;L1128.11,650.87z" style="fill: rgb(226, 232, 235);"/>
        <path class="st3" d="M-39.41,930.3l-91.85-20.48c21.78-14.64,43.56-29.27,65.33-43.91l4.08,9.9L-39.41,930.3z" style="fill: rgb(157, 168, 130);"/>
        <polygon class="st3" points="-20.84,975.79 -96.52,1017.45 -121.57,933.81 -121.56,933.8 -29.71,954.27 &#9;&#9;&#9;" style="fill: rgb(157, 168, 130);"/>
        <g>
          <path class="st3" d="M-39.41,930.3l-91.85-20.48c21.78-14.64,43.56-29.27,65.33-43.91l4.08,9.9L-39.41,930.3z" style="fill: rgb(157, 168, 130);"/>
          <polygon class="st3" points="-20.84,975.79 -96.52,1017.45 -121.57,933.81 -121.56,933.8 -29.71,954.27 &#9;&#9;&#9;&#9;" style="fill: rgb(157, 168, 130);"/>
          <path class="st3" d="M1233.67,930.3l-91.85-20.48c21.78-14.64,43.56-29.27,65.33-43.91l4.08,9.9L1233.67,930.3z" style="fill: rgb(157, 168, 130);"/>
          <polygon class="st3" points="1252.24,975.79 1176.57,1017.45 1151.52,933.81 1151.52,933.8 1243.38,954.27 &#9;&#9;&#9;&#9;" style="fill: rgb(157, 168, 130);"/>
        </g>
        <path class="st1" d="M210.15,265.42l-82.57,91.31c-45.92-16.4-91.84-32.79-137.77-49.19L210.15,265.42z" style="fill: rgb(226, 183, 159);"/>
        <polygon class="st2" points="307.49,170.83 239.89,245.56 182.3,136.08 &#9;&#9;&#9;" style="fill: rgb(226, 232, 235);"/>
        <path class="st2" d="M382.09,76.2l-48.7,53.84L269.16,13.6l-10.3-18.66C299.94,22.03,341.01,49.11,382.09,76.2z" style="fill: rgb(226, 232, 235);"/>
        <path class="st2" d="M47.95-57.19L-56.06,33.99l-17.13-4.75l-4.84-96.52C-36.03-63.91,5.96-60.55,47.95-57.19z" style="fill: rgb(226, 232, 235);"/>
        <polygon class="st2" points="7.69,190.32 -64.46,257.54 -74.46,57.94 &#9;&#9;&#9;" style="fill: rgb(226, 232, 235);"/>
        <polygon class="st4" points="138.13,99.91 47.53,184.29 -34.62,51.91 -17.49,56.66 &#9;&#9;&#9;" style="fill: rgb(226, 175, 88);"/>
        <polygon class="st5" points="285.44,115.35 160.25,80.6 4.63,37.35 221.21,-1.09 &#9;&#9;&#9;" style="fill: rgb(197, 110, 81);"/>
        <polygon class="st1" points="208.38,237.35 -11.96,279.48 60.19,212.25 150.79,127.87 &#9;&#9;&#9;" style="fill: rgb(226, 183, 159);"/>
        <path class="st2" d="M146.28,391.5l134.9-99.07l20.16,7.51l-4.23,116.86C246.84,408.36,196.56,399.93,146.28,391.5z" style="fill: rgb(226, 232, 235);"/>
        <g>
          <polygon class="st2" points="-43.95,706.39 -117.42,746.34 -83.43,580.3 &#9;&#9;&#9;&#9;" style="fill: rgb(226, 232, 235);"/>
          <polygon class="st2" points="1229.13,706.39 1155.66,746.34 1189.66,580.3 &#9;&#9;&#9;&#9;" style="fill: rgb(226, 232, 235);"/>
        </g>
        <polygon class="st4" points="55.67,619.34 -36.58,669.49 -76.05,543.4 -62.99,550.92 &#9;&#9;&#9;" style="fill: rgb(226, 175, 88);"/>
        <path class="st1" d="M1148.71,453.92l-80.38,13.8c-17.22-27.33-34.44-54.66-51.67-81.99L1148.71,453.92z" style="fill: rgb(226, 183, 159);"/>
        <polygon class="st1" points="1159.27,438.57 1027.22,370.39 1092.32,364.87 1174.05,357.96 &#9;&#9;&#9;" style="fill: rgb(226, 183, 159);"/>
        <polygon class="st6" points="977.5,160.21 910.66,61.24 970.66,-52.51 984.92,80.08 1117.39,110.4 1033.48,140.26 978.51,159.84 &#10;&#9;&#9;&#9;&#9;&#9;&#9;&#9;" style="fill: rgb(201, 212, 217);"/>
        <path class="st2" d="M768.4,208.1c-20.93-13.54-40.91-28.59-59.8-45.01L836.65,16.09l18.57,27.49L768.4,208.1z" style="fill: rgb(226, 232, 235);"/>
        <polygon class="st6" points="803.05,214.81 882.8,63.65 949.64,162.63 &#9;&#9;&#9;" style="fill: rgb(201, 212, 217);"/>
        <path class="st2" d="M872.22,307.54c-35.46-17.31-70.92-34.61-106.38-51.92l146.6-52.19l0.55,0.8L872.22,307.54z" style="fill: rgb(226, 232, 235);"/>
        <polygon class="st2" points="906.55,297.53 947.32,194.23 997.15,268.02 &#9;&#9;&#9;" style="fill: rgb(226, 232, 235);"/>
        <path class="st2" d="M1036.17,350.5c-42.64-8.57-85.27-17.14-127.91-25.71l90.6-29.51L1036.17,350.5z" style="fill: rgb(226, 232, 235);"/>
        <path class="st2" d="M1162.33,325.29c-13.1,0.38-26.2,0.76-39.3,1.15l17.82-127.04l13.08,4.15L1162.33,325.29z" style="fill: rgb(226, 232, 235);"/>
        <path class="st6" d="M1092.14,321.24c-8.46-0.1-16.87-0.4-25.27-0.95l-37.31-55.22l-49.83-73.79l0.47-1.18l54.97-19.57&#10;&#9;&#9;&#9;&#9;l74.79,23.68L1092.14,321.24z" style="fill: rgb(201, 212, 217);"/>
        <polygon class="st2" points="1163.98,178.88 1150.9,174.73 1076.11,151.05 1160.01,121.18 &#9;&#9;&#9;" style="fill: rgb(226, 232, 235);"/>
        <path class="st6" d="M1142.09,91.2l-132.47-30.32L995.37-71.71c46.23,15.52,92.45,31.04,138.68,46.56L1142.09,91.2z" style="fill: rgb(201, 212, 217);"/>
        <g>
          <polygon class="st6" points="1044.84,748.05 1213.66,774.71 1141.59,869.94 &#9;&#9;&#9;&#9;" style="fill: rgb(201, 212, 217);"/>
          <polygon class="st6" points="-228.24,748.05 -59.42,774.71 -131.5,869.94 &#9;&#9;&#9;&#9;" style="fill: rgb(201, 212, 217);"/>
        </g>
        <path class="st2" d="M314.62,1131.65c-34.57-19.02-69.14-38.04-103.71-57.05l148.97-44.96l0.51,0.83L314.62,1131.65z" style="fill: rgb(226, 232, 235);"/>
        <g>
          <polygon class="st2" points="-129.41,1043.49 -22.69,1023.36 -57.76,1103.06 &#9;&#9;&#9;&#9;" style="fill: rgb(226, 232, 235);"/>
          <polygon class="st2" points="1143.67,1043.49 1250.39,1023.36 1215.32,1103.06 &#9;&#9;&#9;&#9;" style="fill: rgb(226, 232, 235);"/>
        </g>
        <path class="st2" d="M276.74,637.29c-20.38,3-40.75,5.99-61.13,8.99l4.55-201.54l21.18,4.08L276.74,637.29z" style="fill: rgb(226, 232, 235);"/>
        <polygon class="st2" points="889.6,648.78 859.38,652.78 814.55,544.34 &#9;&#9;&#9;" style="fill: rgb(226, 232, 235);"/>
        <polygon class="st2" points="341.66,858.85 369.41,924.57 267.79,994.36 312.84,874.33 341.64,858.86 &#9;&#9;&#9;" style="fill: rgb(226, 232, 235);"/>
        <polygon class="st6" points="246.66,677.83 246.67,677.85 318.78,848.44 318.76,848.45 289.97,863.92 193.25,789.78 &#10;&#9;&#9;&#9;&#9;246.62,677.85 &#9;&#9;&#9;" style="fill: rgb(201, 212, 217);"/>
        <polygon class="st2" points="281.24,888.79 228.43,917.17 140.57,906.73 184.53,814.65 &#9;&#9;&#9;" style="fill: rgb(226, 232, 235);"/>
        <polygon class="st6" points="214.92,676.56 161.55,788.49 117.59,880.57 50.75,805.42 &#9;&#9;&#9;" style="fill: rgb(201, 212, 217);"/>
        <path class="st2" d="M164.2,664.8L0.03,793.65l-49.83,39.1l67.74-166.96C66.69,665.46,115.44,665.13,164.2,664.8z" style="fill: rgb(226, 232, 235);"/>
        <polygon class="st2" points="98.21,894.1 -27.09,879.25 -18.47,858.05 31.37,818.94 &#9;&#9;&#9;" style="fill: rgb(226, 232, 235);"/>
        <polygon class="st2" points="194.34,930.96 32.09,1018.15 -18.81,905.67 106.48,920.52 &#9;&#9;&#9;" style="fill: rgb(226, 232, 235);"/>
        <path class="st2" d="M256.88,921.6l-45.06,120.03c-56.67-1.49-113.34-2.98-170.01-4.47l162.25-87.19L256.88,921.6z" style="fill: rgb(226, 232, 235);"/>
        <g>
          <path class="st1" d="M72.94-110.53c-10.97,8.76-21.95,17.51-32.92,26.27l-111.75-32.9v-0.03L2.29-217.54L72.94-110.53z" style="fill: rgb(226, 183, 159);"/>
        </g>
        <g>
          <path class="st2" d="M671.5,1101.02l50.9,112.47c-28.67-8.64-57.34-17.28-86.02-25.92L671.5,1101.02z" style="fill: rgb(226, 232, 235);"/>
          <path class="st2" d="M671.5-172.06l50.9,112.47c-28.67-8.64-57.34-17.28-86.02-25.92L671.5-172.06z" style="fill: rgb(226, 232, 235);"/>
        </g>
        <path class="st2" d="M345.35,965.54l15.56,36.77c-39.06,11.01-78.12,22.02-117.18,33.02L345.35,965.54z" style="fill: rgb(226, 232, 235);"/>
        <polygon class="st6" points="164.87,418.87 164.88,418.89 186.15,569.74 186.13,569.74 159.98,575.96 98.76,496.58 &#10;&#9;&#9;&#9;&#9;164.84,418.88 &#9;&#9;&#9;" style="fill: rgb(201, 212, 217);"/>
        <polygon class="st2" points="148.86,600.93 98.78,612.82 28.17,584.78 84.96,518.06 &#9;&#9;&#9;" style="fill: rgb(226, 232, 235);"/>
        <polygon class="st6" points="119.19,422.29 43.81,493.96 -18.24,552.91 -48.06,473.98 &#9;&#9;&#9;" style="fill: rgb(201, 212, 217);"/>
        <path class="st2" d="M131.06,388.75l-167.25,51.7l-50.76,15.68L16.18,345.66C54.47,360.02,92.77,374.39,131.06,388.75z" style="fill: rgb(226, 232, 235);"/>
        <polygon class="st2" points="923.37,677.77 797.24,765.48 787.96,739.2 801.76,663.32 &#9;&#9;&#9;" style="fill: rgb(226, 232, 235);"/>
        <polygon class="st2" points="842.72,539.59 1017.78,596.88 971.48,711.33 895.78,610.38 &#9;&#9;&#9;" style="fill: rgb(226, 232, 235);"/>
        <path class="st2" d="M825.68,495.17l117.97-50.19c38.02,42.05,76.04,84.1,114.06,126.14l-175.05-57.29L825.68,495.17z" style="fill: rgb(226, 232, 235);"/>
        <path class="st2" d="M992.66,717.47l46.3-114.45c13.53,26.72,27.05,53.43,40.58,80.15L992.66,717.47z" style="fill: rgb(226, 232, 235);"/>
        <g>
          <path class="st1" d="M742.55-129.6c12.39-6.8,24.79-13.61,37.18-20.41l105.24,51.83l0,0.03l-90.69,86.86L742.55-129.6z" style="fill: rgb(226, 183, 159);"/>
          <path class="st1" d="M742.55,1143.48c12.39-6.8,24.79-13.61,37.18-20.41l105.24,51.83l0,0.03l-90.69,86.86L742.55,1143.48z" style="fill: rgb(226, 183, 159);"/>
        </g>
        <g>
          <path class="st2" d="M1199.49,482.76l-68.19,61.22c-11.45-14.79-22.9-29.57-34.35-44.36L1199.49,482.76z" style="fill: rgb(226, 232, 235);"/>
          <path class="st2" d="M-73.59,482.76l-68.19,61.22c-11.45-14.79-22.9-29.57-34.35-44.36L-73.59,482.76z" style="fill: rgb(226, 232, 235);"/>
        </g>
        <polygon class="st2" points="1125.73,1065.86 1173.07,1137.57 1070.41,1161.86 &#9;&#9;&#9;" style="fill: rgb(226, 232, 235);"/>
        <polygon class="st4" points="835.81,454.25 860.35,332.9 1004.21,392.7 987.51,398.81 &#9;&#9;&#9;" style="fill: rgb(226, 175, 88);"/>
        <path class="st2" d="M546.83,1164.32c-2.51,16.39-5.03,32.78-7.54,49.18l-154.06-51.17l8.15-15.34L546.83,1164.32z" style="fill: rgb(226, 232, 235);"/>
        <polygon class="st2" points="202.27,-69.25 297.8,-99.06 298.43,-80.92 275.01,-36.47 &#9;&#9;&#9;" style="fill: rgb(226, 232, 235);"/>
        <path class="st2" d="M194.62,589.9l0.43,70.59c-12.97-11.18-25.93-22.36-38.9-33.54L194.62,589.9z" style="fill: rgb(226, 232, 235);"/>
        <path class="st2" d="M1174.01-93.68l-8.98,43.95c-43.18-14.65-86.36-29.3-129.54-43.95L1174.01-93.68z" style="fill: rgb(226, 232, 235);"/>
        <ellipse transform="matrix(0.9869 -0.1611 0.1611 0.9869 -172.7885 73.8942)" class="st5" cx="369.41" cy="1102.76" rx="20.69" ry="20.69" style="fill: rgb(197, 110, 81);"/>
        <ellipse transform="matrix(0.9869 -0.1611 0.1611 0.9869 -53.0848 -5.826)" class="st5" cx="-62.48" cy="324.53" rx="20.69" ry="20.69" style="fill: rgb(197, 110, 81);"/>
        <ellipse transform="matrix(0.9869 -0.1611 0.1611 0.9869 -98.8503 188.7286)" class="st5" cx="1114.71" cy="704.11" rx="20.69" ry="20.69" style="fill: rgb(197, 110, 81);"/>
      </g>
    </g>
  </g>
  <g id="g-1" transform="matrix(0.524117, 0, 0, 0.722233, -22.9785, 535.903137)" style="">
    <g>
      <defs>
        <rect id="rect-1" width="1024" height="1080"/>
      </defs>
      <clipPath id="clip-1">
        <rect width="1024" height="1080" style="overflow: visible;"/>
      </clipPath>
      <g style="opacity: 0.3; clip-path: url(&quot;#clip-1&quot;);">
        <g>
          <path class="st2" d="M671.5,1101.02l50.9,112.47c-28.67-8.64-57.34-17.28-86.02-25.92L671.5,1101.02z" style="fill: rgb(226, 232, 235);"/>
          <path class="st2" d="M671.5-172.06l50.9,112.47c-28.67-8.64-57.34-17.28-86.02-25.92L671.5-172.06z" style="fill: rgb(226, 232, 235);"/>
        </g>
        <g>
          <path class="st1" d="M742.55-129.6c12.39-6.8,24.79-13.61,37.18-20.41l105.24,51.83l0,0.03l-90.69,86.86L742.55-129.6z" style="fill: rgb(226, 183, 159);"/>
          <path class="st1" d="M742.55,1143.48c12.39-6.8,24.79-13.61,37.18-20.41l105.24,51.83l0,0.03l-90.69,86.86L742.55,1143.48z" style="fill: rgb(226, 183, 159);"/>
        </g>
      </g>
    </g>
  </g>
</svg>